<svg xmlns="http://www.w3.org/2000/svg" width="435.6" height="175.55917314134976" viewBox="0 -4 369.89473684210526 149.07808574228" class="css-1j8o68f"><defs id="SvgjsDefs2684"></defs><g id="SvgjsG2685" featurekey="symbolFeature-0" transform="matrix(0.9235818557557737,0,0,0.9235818557557737,-53.03992869250362,-24.09539741597278)" fill="#d72323"><title xmlns="http://www.w3.org/2000/svg">A_10</title><path xmlns="http://www.w3.org/2000/svg" d="M154,33.67a8.07,8.07,0,0,0-9.74.58c1.3-3.34.48-7.14-3.19-8.81-4-1.82-8.32-.07-11.66,2.45.4-3-2.47-5.73-5.59-6.08-5.1-.58-11,3.81-13.7,7.79-.27.4.26.68.58.44,2.39-1.76,4.56-3.83,7.26-5.14,3.69-1.78,10.8-1.81,8.84,4.42-.24.77.39,1.19,1,1.11a.62.62,0,0,0,.47-.06c3-1.68,6.15-4.32,9.88-3.62a5.3,5.3,0,0,1,4,2.7c.92,2.05-.28,4.19-1,6.07-.47,1.23,1.3,1.71,2,.79v0a.6.6,0,0,0,.69-.16,6.49,6.49,0,0,1,9.23-.77,6.82,6.82,0,0,1,.28,9.15,1.1,1.1,0,0,0-.17,1.46,1.23,1.23,0,0,0-.26.37c-5.92,12.67-19,26.87-34.22,27-10.63.08-13.78-10.74-14-19.54-.24-8.24,2.29-15.84,6.51-22.82.33-.54-.44-.91-.79-.45a39.65,39.65,0,0,0-7.46,25.94c.38,5.86,2,12.46,6.43,16.25a1.1,1.1,0,0,0-.77.48,199.35,199.35,0,0,0-20,34.28C92.3,84.28,81.15,58.72,61.42,46c0-.12,0-.25,0-.37.06-.55-.73-.63-1-.21-.23-.15-.46-.3-.7-.44a1.5,1.5,0,0,0-1.67,2.49c.52.37,1,.74,1.53,1.12-5.21,22.83,5.19,49.17,22.6,64,1.36,1.16,3.68-.79,2.27-2l-.76-.7a.73.73,0,0,0,.19-.73c-3.69-10.71-7.59-21.38-11.73-31.93-.19-.47-1-.13-.89.34,3.14,10.09,6.53,20.12,10.07,30.08a69.88,69.88,0,0,1-17.06-27c-3.5-10.21-4.06-20.4-3.26-30.93,8.74,6.79,15.81,14.8,20.4,25.15,5.77,13,5.94,26.64,3.44,40.42a.73.73,0,0,0,0,.4q-3.24,7.91-5.86,16.06a.92.92,0,0,0-.44,1.37A242.61,242.61,0,0,0,69,178.33c-.08.7,1,.66,1.1,0a214.85,214.85,0,0,1,10.22-44.47c28.48,10.26,65.36-8.29,70.06-39.45.25-1.66-2.31-1.74-2.79-.36C143,107.41,136.36,119,124,126.62c-13.07,8-28.36,9.16-42.93,5.39,8.4-9.07,17.62-17.16,28.32-23.45a111.05,111.05,0,0,1,16.35-7.93c5.94-2.3,12.18-3.42,18.16-5.49,1.2-.42,1.48-2.57-.15-2.43-12.13,1.06-25.18,7.61-35.42,13.85a106.3,106.3,0,0,0-26.07,22.06,256.5,256.5,0,0,1,28.19-54.39,1.12,1.12,0,0,0,.2-.55A12.83,12.83,0,0,0,115,75.5c7.89,1.68,16.85-2.68,23.14-7A46.66,46.66,0,0,0,155.27,47a1,1,0,0,0-.14-1.08C158.09,42.36,157.88,36.45,154,33.67Z"></path><path xmlns="http://www.w3.org/2000/svg" d="M113.09,115.53a212.1,212.1,0,0,1-30,14.74.57.57,0,0,0,.38,1.06,139.39,139.39,0,0,0,30.45-14.22C115,116.45,114.17,114.89,113.09,115.53Z"></path></g><g id="SvgjsG2686" featurekey="nameFeature-0" transform="matrix(1.9375052845622196,0,0,1.9375052845622196,110.83691185501733,21.47460165487359)" fill="#ffffff"><path d="M16.028 25.225 c-0.1748 0.061992 -0.33684 0.15305 -0.68724 0.32066 c0.4552 0.13398 0.7384 0.22277 1.0244 0.30156 c1.63 0.4492 3.0992 1.3524 4.2356 2.6044 c0.562 0.6048 0.9748 1.3328 1.2048 2.1256 c0.4688 1.5476 0.48436 3.1968 0.045156 4.7532 c-0.090392 0.3232 -0.2268 0.6316 -0.4044 0.916 c-0.6408 1.0624 -1.5676 1.9224 -2.6748 2.4816 c-1.0324 0.5232 -2.1372 0.89 -3.2776 1.0884 c-0.7356 0.1248 -1.48 0.18922 -2.2264 0.19242 c-2.502 0.0035938 -5.0044 0.0051952 -7.5072 0.004414 c-1.4192 0 -2.8384 0.008008 -4.2576 0.0096092 c-0.22121 0 -0.442 -0.012383 -0.6732 -0.01918 c-0.25719 -0.3552 -0.30117 -0.822 -0.11559 -1.2196 c0.34961 -0.3816 0.822 -0.2748 1.1696 -0.4716 c0.20879 -0.16961 0.33598 -0.42 0.35039 -0.6884 c0.031602 -0.37121 0.046408 -0.7448 0.047188 -1.118 c0.0092188 -3.772 0.015625 -7.5436 0.019219 -11.315 c0.0023828 -1.7552 0.0023828 -3.5104 0 -5.2656 c0.018789 -0.5228 -0.015195 -1.0464 -0.10199 -1.562 c-0.07078 -0.36762 -0.073164 -0.74524 -0.0071484 -1.1136 c0.087188 -0.8168 0.10797 -1.6396 0.061952 -2.4596 c-0.0032031 -0.2968 -0.08 -0.5884 -0.22359 -0.848 c-0.21398 -0.27238 -0.55276 -0.41636 -0.89756 -0.38156 c-0.1948 0.033594 -0.39281 -0.042424 -0.5152 -0.19801 c-0.0416 -0.35801 0.030781 -0.72 0.20758 -1.034 c0.0684 -0.042812 0.1416 -0.0784 0.21801 -0.1052 c0.10961 -0.023203 0.22121 -0.034805 0.3332 -0.034414 c1.6804 0.004414 3.3608 0.0096092 5.0412 0.016406 c0.7844 0 1.5684 -0.0032031 2.3524 -0.0024219 c0.8216 0 1.6444 -0.021211 2.464 0.015195 c0.9676 0.041992 1.9396 0.095976 2.9024 0.21996 c0.9628 0.12199 1.9124 0.33078 2.838 0.62316 c1.2512 0.4096 2.344 1.1988 3.1268 2.2576 c0.1316 0.18078 0.24801 0.37277 0.3468 0.57356 c0.35398 0.7016 0.58636 1.4584 0.68716 2.2376 c0.033203 0.37121 0.027188 0.7448 -0.017617 1.1148 c-0.010781 0.18442 -0.086796 0.36602 -0.093984 0.55044 c-0.0484 0.7132 -0.29879 1.398 -0.722 1.974 c-0.31398 0.4632 -0.6524 0.9096 -1.0136 1.3372 c-0.4112 0.4864 -0.9092 0.89244 -1.4684 1.1976 c-0.5752 0.34762 -1.1736 0.65524 -1.7908 0.92044 z M7.348 38.0742 c0.22039 0.39039 0.54276 0.7136 0.9324 0.9348 c0.13281 0.036406 0.2032 0.05922 0.27602 0.076016 c1.4204 0.33121 2.8976 0.33359 4.3188 0.007578 c0.3648 -0.074412 0.72244 -0.17961 1.0692 -0.31442 c1.1472 -0.4116 2.0064 -1.378 2.2804 -2.5656 c0.025586 -0.10879 0.053204 -0.21758 0.075588 -0.3268 c0.25879 -1.1644 0.37438 -2.356 0.34398 -3.5484 c-0.004414 -0.14922 -0.019219 -0.29801 -0.044024 -0.4452 c-0.12879 -0.6956 -0.24719 -1.3932 -0.4016 -2.0836 c-0.1332 -0.6232 -0.4064 -1.208 -0.7992 -1.7096 c-0.8788 -1.1896 -2.246 -1.9204 -3.7232 -1.9896 c-0.4092 -0.02 -0.8196 -0.020781 -1.2292 -0.024375 c-0.6332 0.014805 -1.2664 -0.025195 -1.8928 -0.11961 c-0.2952 -0.039609 -0.5936 -0.047616 -0.8904 -0.024024 c-0.11441 0.028398 -0.2232 0.076016 -0.32199 0.14 c-0.017188 0.22199 -0.047968 0.4408 -0.04918 0.66 c-0.0048048 1.1184 0.0051952 2.2372 -0.0051952 3.3552 c0.025195 1.3792 -0.020391 2.7588 -0.13598 4.1332 c-0.049608 0.4452 -0.044804 0.8944 0.014414 1.3384 c0.075588 0.5568 0.081992 1.114 0.12078 1.6716 c0.020391 0.29442 0.041992 0.59204 0.061212 0.8344 z M7.7236 12.952000000000002 c-0.16121 0.0064064 -0.30746 0.095196 -0.38785 0.2348 c-0.075588 0.2 -0.1016 0.4152 -0.076796 0.6272 c0.023984 1.1556 -0.016016 2.3112 -0.12043 3.462 c-0.013594 0.18602 -0.016406 0.37281 -0.0087892 0.5592 c0 1.3792 -0.0032031 2.7588 0 4.138 c0 0.33641 0.028789 0.6696 0.04918 1.004 c0.022812 0.37121 0.054024 0.742 0.076016 1.1132 c0.017617 0.2968 0.026406 0.5936 0.038008 0.86 l0.17398 0.19558 c0.068788 0.027617 0.14117 0.046408 0.21516 0.056408 c1.118 0.0051952 2.2372 0.038398 3.3536 0 c0.9724 -0.0584 1.9152 -0.3548 2.746 -0.8632 c0.6184 -0.35398 1.1388 -0.85596 1.5144 -1.4608 c0.8272 -1.3432 1.2012 -2.9168 1.0668 -4.4884 c-0.029609 -0.3716 -0.081212 -0.7412 -0.1552 -1.1064 c-0.10039 -0.7052 -0.3716 -1.3748 -0.7908 -1.9508 c-0.7452 -0.996 -1.8196 -1.6948 -3.0324 -1.9716 c-0.6864 -0.1752 -1.39 -0.2768 -2.098 -0.30359 c-0.4448 -0.0023828 -0.8892 -0.083984 -1.3348 -0.10559 c-0.4088 -0.019219 -0.8192 -0.015234 -1.228 -0.000039062 z M33.6976 38.6116 c0.34762 0.06922 0.58444 0.3927 0.54524 0.74468 c-0.0092188 0.092812 -0.024805 0.1848 -0.046408 0.2752 c-0.16039 0.1916 -0.4104 0.28359 -0.6568 0.24199 c-0.4776 -0.084804 -0.96724 -0.078788 -1.4428 0.017617 c-0.4456 0.048788 -0.894 0.07 -1.3424 0.063592 c-0.7692 0.028398 -1.5392 0.01 -2.306 -0.055196 c-0.19039 -0.081992 -0.3068 -0.2768 -0.2884 -0.4832 c0.0076172 -0.18281 0.044412 -0.36442 0.06922 -0.55404 c0.14641 -0.086796 0.26879 -0.16758 0.39879 -0.23398 c0.0984 -0.044804 0.19918 -0.084412 0.30156 -0.11801 c0.039609 -0.074412 0.10039 -0.13723 0.10438 -0.20363 c0.02 -0.33359 0.033594 -0.6704 0.033594 -1.0068 c-0.0016016 -3.4748 -0.012383 -6.9496 -0.031992 -10.424 c0.024805 -0.8592 -0.02 -1.7188 -0.13398 -2.5708 c-0.026406 -0.22281 -0.034414 -0.44724 -0.024414 -0.6708 l0 -3.0264 c-0.0083984 -0.1868 -0.004414 -0.37359 0.011602 -0.56 c0.13199 -1.4128 0.1832 -2.8324 0.1532 -4.2512 c0.019219 -0.5432 -0.086368 -1.0832 -0.30875 -1.5792 l-0.5584 -0.5228 l0 -0.4948 c0.0784 -0.066016 0.12719 -0.13762 0.19199 -0.15684 c0.7508 -0.22442 1.5008 -0.4564 2.258 -0.6552 c0.7204 -0.2048 1.4708 -0.28242 2.218 -0.22961 c0.2268 0.031602 0.4116 0.1984 0.466 0.4208 c0.068788 0.33078 0.068788 0.672 0 1.0028 c-0.16442 0.9208 -0.17562 1.862 -0.033242 2.7864 c0.031992 0.29719 0.047576 0.59596 0.046796 0.89476 c0.0060156 1.1204 0.008828 2.2416 0.000039062 3.3624 c-0.0028125 0.41 -0.022812 0.822 -0.065196 1.23 c-0.08 0.818 -0.082812 1.6416 -0.008008 2.46 c0.038398 0.446 0.0716 0.8944 0.0716 1.3412 c0.0051952 3.176 0.0051952 6.352 0 9.5276 c-0.00039062 0.37199 -0.055976 0.7436 -0.068788 1.116 c-0.020391 0.5968 -0.031602 1.1932 -0.033984 1.7896 c0.01 0.093984 0.035195 0.18598 0.074804 0.27199 c0.091992 0.1384 0.24 0.22961 0.4048 0.25 z M86.868 38.8116 c0.25238 0.29121 0.24039 0.72676 -0.028008 1.0032 c-0.12719 0.038789 -0.2584 0.065196 -0.39078 0.078788 c-0.7096 0.018008 -1.4196 0.019219 -2.1292 0.035234 c-0.26121 0.0016016 -0.5224 0.021602 -0.7808 0.058788 c-0.7056 0.081992 -1.4172 0.098008 -2.1256 0.048008 c-0.10039 -0.013594 -0.19879 -0.04078 -0.29238 -0.08078 c-0.1584 -0.12 -0.2568 -0.30359 -0.2684 -0.502 c-0.029219 -0.21281 0.037969 -0.4276 0.18356 -0.58564 l0.5468 -0.2052 c0.038789 -0.066016 0.10359 -0.12641 0.10961 -0.19242 c0.22121 -1.6296 0.2568 -3.2788 0.10559 -4.9164 c-0.033594 -0.37238 -0.041992 -0.74636 -0.024375 -1.1196 c0.018008 -1.72 -0.044804 -3.438 -0.10039 -5.156 c-0.022812 -0.4852 -0.1116 -0.9652 -0.26442 -1.4264 c-0.18 -0.7028 -0.6948 -1.272 -1.3764 -1.5208 c-0.17199 -0.071212 -0.35199 -0.1216 -0.53596 -0.15 c-1.1528 -0.16039 -2.3272 -0.021992 -3.4112 0.4028 c-0.4492 0.18558 -0.8632 0.4476 -1.2236 0.7736 c-0.093984 0.1016 -0.1784 0.21199 -0.25238 0.32918 c0.22558 1.6388 0.33078 3.292 0.31476 4.9464 c0.01 0.2248 0.0012109 0.4496 -0.025976 0.6728 c-0.098788 0.7036 -0.1368 1.4144 -0.1132 2.1244 c-0.021211 1.532 -0.0083984 3.0644 -0.0060156 4.5972 c0 0.14641 0.022383 0.29602 0.030781 0.39883 c0.16281 0.3348 0.49724 0.21199 0.7612 0.432 c0.036797 0.024414 0.064804 0.06082 0.07922 0.10242 c0.084804 0.24961 0.074804 0.5212 -0.028398 0.7636 c-0.045588 0.056796 -0.097968 0.10801 -0.15637 0.15199 c-0.3352 0.1684 -0.7096 0.24398 -1.0844 0.21918 c-1.0464 0.0028125 -2.0924 0.019219 -3.1388 0.019219 c-0.33641 0 -0.6732 -0.020781 -1.0096 -0.041992 c-0.19359 -0.0096092 -0.37558 -0.096016 -0.5048 -0.24082 c-0.14398 -0.2552 -0.17199 -0.5596 -0.076796 -0.8364 c0.1384 -0.2852 0.4852 -0.20442 0.65596 -0.4116 c0.041992 -0.06078 0.073204 -0.1284 0.091212 -0.2 c0.029219 -0.5588 0.063204 -1.1176 0.071212 -1.6772 c0.013594 -0.898 0.012812 -1.7952 0.0092188 -2.692 c-0.0067968 -1.794 0.0028125 -3.588 -0.03957 -5.3812 c-0.016797 -0.7448 -0.13961 -1.4868 -0.21762 -2.2292 c-0.012812 -0.073984 -0.032031 -0.14637 -0.058048 -0.21637 c-0.35281 -1.1784 -0.8968 -1.88 -2.6284 -1.9912 c-1.0136 -0.050392 -2.022 0.1748 -2.918 0.6512 c-1.1596 0.6064 -2.2612 1.318 -3.2908 2.1256 c-1.2412 0.9624 -2.4024 2.0236 -3.4724 3.1728 c-0.6684 0.706 -1.2888 1.4556 -1.8564 2.2448 c-1.2068 1.6692 -2.5416 3.2316 -3.87 4.7992 c-0.8648 0.9852 -1.8796 1.8272 -3.0068 2.496 c-0.32602 0.18039 -0.6632 0.33961 -1.0096 0.4764 c-0.1 0.051212 -0.20719 0.086796 -0.31797 0.10559 c-1.034 0.18281 -2.0964 0.12082 -3.102 -0.18156 c-0.564 -0.2048 -1.0792 -0.5256 -1.5116 -0.9416 c-0.7588 -0.728 -1.3212 -1.636 -1.6348 -2.64 c-0.32922 -0.9968 -0.44844 -2.0508 -0.35043 -3.096 c0.0784 -0.6304 0.079608 -1.2684 0.0032031 -1.8992 c-0.030781 -0.33558 -0.03918 -0.67276 -0.025195 -1.0092 c-0.013594 -2.3536 -0.02918 -4.708 -0.045976 -7.0636 c-0.0016016 -0.22039 -0.023594 -0.4432 -0.031992 -0.5988 c-0.18719 -0.37879 -0.6164 -0.20398 -0.7848 -0.50476 c-0.19 -0.3232 -0.1348 -0.734 0.13359 -0.9956 c0.3232 -0.1148 0.6664 -0.1648 1.0092 -0.1468 c0.5224 -0.022383 1.0428 -0.031992 1.5644 -0.10398 c0.632 -0.071992 1.2704 -0.071992 1.9024 0 c0.3132 0.018398 0.5628 0.26961 0.57884 0.5832 c0.026797 0.29641 0.037188 0.596 0.037188 0.89404 c0.0035938 1.9432 0.0083984 3.8864 0 5.83 c-0.0051952 1.2692 0.044804 2.5372 -0.035195 3.8088 c-0.014805 0.7476 0.028398 1.4948 0.12961 2.2352 c0.06078 0.56 0.23558 1.1016 0.5136 1.5912 c0.32801 0.6472 0.9644 1.0812 1.6868 1.1508 c0.25879 0.030781 0.522 0.036367 0.7832 0.041952 c0.7896 0.017617 1.5628 -0.22957 2.196 -0.70196 c0.9228 -0.6384 1.7436 -1.4132 2.434 -2.2976 c0.838 -1.0988 1.7024 -2.1796 2.5204 -3.2936 c1.0036 -1.35 1.8888 -2.7844 2.6456 -4.2868 c0.3432 -0.6652 0.5984 -1.3724 0.7596 -2.1032 c0.043204 -0.21922 0.066016 -0.44204 0.068008 -0.66524 c0.0035938 -0.19039 -0.074804 -0.3732 -0.21558 -0.5016 c-0.21762 -0.20039 -0.448 -0.3868 -0.6904 -0.5944 c-0.0076172 -0.14 -0.015234 -0.28359 -0.02125 -0.39598 c0.08078 -0.087616 0.12078 -0.16242 0.18238 -0.19164 c0.33801 -0.15879 0.6752 -0.32039 1.0232 -0.4532 c1.036 -0.4436 2.1664 -0.6216 3.2888 -0.5184 c0.15039 0.0028125 0.29398 0.064024 0.4 0.17121 c0.29359 0.4516 0.25398 1.0008 0.39558 1.438 c0.17039 0.18199 0.4288 0.2532 0.668 0.18359 c0.29602 -0.051992 0.57564 -0.1716 0.8176 -0.34961 c0.34039 -0.22762 0.6732 -0.4716 1.0096 -0.7052 c0.4244 -0.3068 0.8884 -0.5544 1.3796 -0.7364 c0.4212 -0.1568 0.86564 -0.24078 1.3148 -0.24918 c0.4856 -0.00078124 0.9724 -0.010781 1.4568 0.02082 c1.1372 0.057616 2.1924 0.6112 2.886 1.5144 c0.41 0.4876 0.7408 1.036 0.98156 1.6256 c0.034414 0.14719 0.12641 0.27438 0.25562 0.35359 c0.063984 -0.020781 0.15039 -0.020781 0.19 -0.062772 c0.2768 -0.30442 0.54 -0.62 0.8148 -0.9256 c0.964 -1.1044 2.2128 -1.9228 3.61 -2.3664 c0.996 -0.34078 2.0684 -0.38918 3.0908 -0.13918 c0.918 0.21442 1.7348 0.7376 2.3136 1.4816 c0.34762 0.4412 0.63684 0.9248 0.86124 1.4396 c0.38801 0.932 0.64404 1.9132 0.7608 2.9156 c0.13559 1.2628 0.1832 2.5336 0.14359 3.8032 c-0.024414 1.5688 0.0095704 3.1388 0.017578 4.7084 c0.0039844 0.7472 0.0027734 1.4948 0.0083592 2.242 c0.0028125 0.29801 0.018828 0.5952 0.03082 0.9572 z M63.596 38.4835 c0.19281 0.34961 0.6124 0.18476 0.7956 0.48836 c0.099608 0.2468 0.096016 0.5228 -0.0095704 0.76724 c-0.060392 0.056796 -0.12879 0.1652 -0.22277 0.1984 c-0.17398 0.064412 -0.35719 0.1 -0.54276 0.10602 c-1.4188 0.008008 -2.8368 0.0035938 -4.2552 0.0035938 c-0.33558 0.014805 -0.6684 -0.067576 -0.9584 -0.23719 c-0.25442 -0.32641 -0.12883 -0.6352 0.031562 -0.972 c0.13078 -0.037617 0.27238 -0.076016 0.41116 -0.1216 c0.10078 -0.033984 0.19797 -0.0784 0.26637 -0.10602 c0.11 -0.21078 0.15039 -0.4508 0.11598 -0.68596 c-0.0048048 -2.2008 -0.0067968 -4.402 -0.0067968 -6.6036 c-0.00039062 -0.5224 0.0072264 -1.0448 0.018008 -1.5672 c0.004414 -0.30281 0.1216 -0.5928 0.3284 -0.81404 c0.6892 -0.7884 1.5112 -1.45 2.4292 -1.9544 c0.29879 -0.1584 0.6408 -0.21602 0.97476 -0.16402 c0.099608 0.025195 0.19602 0.062812 0.28602 0.11203 c0.1668 0.21442 0.2484 0.4832 0.22918 0.7544 c0.0092188 0.7836 0.026836 1.5672 0.029648 2.3512 c0.0064064 1.9032 0.0040236 3.8068 0.0096092 5.71 c0.0028125 0.7836 0.014805 1.5676 0.028008 2.3512 c0.0067968 0.1284 0.020781 0.25641 0.041992 0.38359 z M52.236999999999995 22.604 l-0.65104 -0.34246 c-0.0484 -0.1368 -0.086016 -0.27758 -0.11242 -0.4204 c-0.019219 -0.23039 0.12758 -0.4424 0.34996 -0.50476 c0.14199 -0.043204 0.28879 -0.07 0.4368 -0.079608 c1.3404 -0.0012109 2.6812 0.0016016 4.0224 0.0087892 c0.072384 0.010391 0.14316 0.030391 0.20996 0.059608 c0.18922 0.12801 0.29602 0.34641 0.28121 0.57404 c0.0016016 0.29762 -0.013594 0.59564 -0.045976 0.89164 c-0.1448 1.3336 -0.14762 2.6788 -0.008008 4.0128 c0.07 0.708 -0.0484 1.422 -0.3432 2.0696 c-0.15039 0.34078 -0.32359 0.67116 -0.518 0.9892 c-0.7728 1.2304 -1.618 2.414 -2.5304 3.5444 c-0.1252 0.13559 -0.26641 0.2548 -0.42084 0.35602 c-0.13922 0.064412 -0.3048 0.018008 -0.39 -0.10961 c-0.065196 -0.13281 -0.11441 -0.2732 -0.14562 -0.418 c-0.027188 -0.2216 -0.037578 -0.4452 -0.031562 -0.6684 c0.010781 -0.9312 -0.018828 -1.8668 0.056756 -2.792 c0.046796 -0.8904 0.043592 -1.7824 -0.01 -2.6724 c-0.038789 -1.2652 -0.022383 -2.532 -0.027188 -3.798 c0.032383 -0.24039 -0.01043 -0.4852 -0.12281 -0.7004 z M57.102999999999994 37.917 l0.72164 -0.073984 c0.19359 0.28039 0.22199 0.6436 0.073984 0.9508 c-0.07078 0.074804 -0.14957 0.1416 -0.23476 0.19879 c-0.13121 0.070392 -0.26961 0.1268 -0.4128 0.1684 c-0.5688 0.1768 -1.1468 0.3268 -1.7084 0.524 c-0.4572 0.16398 -0.94 0.24277 -1.4256 0.23356 c-0.4464 -0.0096092 -0.8928 -0.033203 -1.2432 -0.047188 c-0.24078 -0.10398 -0.34398 -0.22078 -0.35078 -0.37359 c-0.023203 -0.5216 -0.034805 -1.0428 -0.034805 -1.5644 c0.0083984 -0.34039 0.1448 -0.66436 0.38242 -0.90836 c0.070392 -0.086796 0.15039 -0.16558 0.2384 -0.2352 c0.8992 -0.7296 1.686 -1.588 2.3348 -2.5472 c0.2032 -0.26641 0.4088 -0.5328 0.63276 -0.7812 c0.11078 -0.095196 0.23316 -0.17558 0.36394 -0.24 l0.28442 0.2168 c0.092384 0.4784 0.12 0.9676 0.081992 1.4536 c-0.0028125 0.7456 -0.01082 1.492 -0.0028125 2.2376 c0.0039844 0.18602 0.035586 0.37043 0.093984 0.54684 c0.030391 0.093984 0.13641 0.1632 0.2048 0.24082 z M99.2124 38.8358 c0.049452 0.13672 0.085156 0.27808 0.10648 0.42192 c0.020195 0.36594 -0.16024 0.612 -0.48116 0.63092 c-0.67004 0.039961 -1.3426 0.09422 -2.0118 0.073204 c-1.0444 -0.033242 -2.0871 -0.098868 -3.1323 -0.033242 c-0.20195 0.037969 -0.40768 -0.043944 -0.52828 -0.21031 c-0.027656 -0.090976 -0.044884 -0.1848 -0.051328 -0.27969 c0.0054688 -0.45176 0.094648 -0.55568 0.55228 -0.69276 c0.076288 -0.028125 0.15098 -0.060428 0.22375 -0.09676 c0.041796 -0.092696 0.070936 -0.19058 0.08664 -0.29106 c-0.0024609 -0.59716 0.037891 -1.1937 0.12074 -1.7851 c0.027344 -0.22238 0.035938 -0.44668 0.025664 -0.67052 c0.0083984 -0.85836 0.012617 -1.7166 0.012617 -2.5746 c0.0076952 -0.29863 -0.0017188 -0.59748 -0.028164 -0.89504 c-0.14172 -1.7101 -0.18512 -3.427 -0.13 -5.142 c-0.00042968 -0.93292 0.012617 -1.8659 0.010078 -2.7988 c-0.0036719 -0.2609 -0.02207 -0.5214 -0.055116 -0.78024 c-0.026797 -0.12102 -0.064688 -0.2393 -0.11316 -0.35336 c-0.17582 -0.15016 -0.38148 -0.30832 -0.56824 -0.48668 c-0.14531 -0.15668 -0.17348 -0.38898 -0.069844 -0.57584 c0.10117 -0.078712 0.2118 -0.14441 0.3293 -0.19558 c0.74408 -0.24226 1.4852 -0.49844 2.2423 -0.69572 c0.764 -0.17867 1.554 -0.21785 2.3319 -0.11566 c0.15133 0.027852 0.27203 0.14226 0.30793 0.29188 c0.038984 0.10469 0.060312 0.21512 0.063124 0.3268 c-0.010938 0.37266 -0.037031 0.74532 -0.058908 1.1176 c-0.039531 0.6696 -0.10348 1.3388 -0.11609 2.0093 c-0.032266 1.6791 -0.049648 3.3582 -0.052188 5.0372 c-0.0029297 1.8659 0.018945 3.7317 0.027774 5.598 c0.0037891 0.522 -0.0054688 1.0444 0 1.5664 c0.0042188 0.37098 0.023555 0.74196 0.039102 1.1849 z M94.5795 16.992 c-0.12102 -0.086288 -0.22625 -0.19285 -0.3109 -0.31504 c-0.5006 -0.7108 -0.6834 -1.5976 -0.50472 -2.4484 c0.14988 -0.7494 0.68784 -1.3621 1.4116 -1.6076 c0.31082 -0.11988 0.641 -0.18801 1.0309 -0.29906 c0.3016 0.076992 0.55692 0.13125 0.80632 0.20316 c0.5772 0.17031 1.0714 0.5474 1.388 1.0591 c0.2157 0.30684 0.3316 0.67268 0.33188 1.0478 c-0.0054688 0.22336 -0.010508 0.44672 -0.0054688 0.67008 c-0.0081252 0.60432 -0.27527 1.1761 -0.73356 1.5702 c-0.12957 0.1343 -0.28609 0.23965 -0.45928 0.30914 c-0.34785 0.12988 -0.70516 0.23281 -1.0688 0.30789 c-0.67092 0.11356 -1.3583 -0.067616 -1.886 -0.4972 z M125.855 24.527 c-0.4136 0.4304 -0.83628 0.85688 -1.2115 1.3229 c-0.882 1.1132 -1.6484 2.3136 -2.2868 3.5824 c-0.13641 0.2632 -0.2748 0.5284 -0.40084 0.7992 c-0.7496 1.5464 -1.59 3.0468 -2.5168 4.494 c-0.432 0.6984 -0.8652 1.3976 -1.324 2.0788 c-0.6464 0.9648 -1.472 1.7964 -2.432 2.45 c-0.8232 0.5916 -1.7876 0.9556 -2.7964 1.056 c-0.932 0.27602 -1.8576 0.076016 -2.7736 -0.077188 c-0.6232 -0.13559 -1.21 -0.4048 -1.7196 -0.7888 c-0.30801 -0.20961 -0.5968 -0.44884 -0.8916 -0.6776 c-0.1452 -0.1468 -0.33039 -0.24719 -0.5324 -0.28918 c-0.1952 0.056408 -0.4408 0.13281 -0.6892 0.19723 c-0.1216 0.031211 -0.26082 -0.045976 -0.4812 -0.23598 c-0.030391 -0.10441 -0.05078 -0.2116 -0.061564 -0.31961 c-0.014414 -1.046 -0.026016 -2.0916 -0.034805 -3.1368 c-0.013594 -0.1932 0.066796 -0.38082 0.21558 -0.5048 c0.23398 -0.11559 0.5068 -0.12359 0.7468 -0.021602 c0.054804 0.051212 0.12641 0.0916 0.15922 0.1532 c0.15879 0.29641 0.31078 0.59564 0.4568 0.89844 c0.34922 0.7024 0.74684 1.3796 1.19 2.0268 c0.3468 0.4876 0.7488 0.9332 1.1984 1.328 c0.2784 0.25121 0.6012 0.448 0.95244 0.5796 c0.17359 0.066016 0.35558 0.10762 0.5408 0.12363 c0.26 0.023594 0.5224 0.013984 0.7836 0.021172 c0.3384 0.005586 0.6716 -0.083632 0.9616 -0.25762 c0.7244 -0.38961 1.4004 -0.8632 2.0144 -1.4108 c0.9004 -0.8416 1.7384 -1.7476 2.5076 -2.7104 c2.2256 -2.8724 3.8504 -6.1636 4.7768 -9.6772 c0.1616 -0.4692 0.18719 -0.9744 0.074804 -1.4572 c-0.24238 -0.22801 -0.56316 -0.35402 -0.89556 -0.35242 c-0.3352 -0.012383 -0.6704 -0.024766 -1.0044 -0.051952 c-0.11 -0.026016 -0.20238 -0.10043 -0.2516 -0.20242 c-0.048788 -0.1016 -0.04918 -0.22039 -0.00078124 -0.32238 c0.076408 -0.16922 0.18 -0.32442 0.30719 -0.4596 c0.3852 -0.35359 0.782 -0.6932 1.1904 -1.0184 c0.8632 -0.6548 1.688 -1.358 2.4704 -2.1072 c0.648 -0.6212 1.2048 -1.3312 1.6536 -2.1084 c0.07078 -0.13 0.16199 -0.24961 0.2332 -0.35801 c0.084804 -0.043984 0.14922 -0.10719 0.21524 -0.10719 c0.2268 -0.035195 0.4444 0.10281 0.5092 0.3232 c0.076796 0.36641 0.08 0.7444 0.0092188 1.1124 c-0.076016 0.6308 -0.098008 1.2668 -0.066016 1.9012 c-0.005586 0.26078 0.065624 0.5176 0.20484 0.73796 c0.1548 0.11039 0.34558 0.15801 0.534 0.13359 c1.1948 0 2.3904 -0.004414 3.5856 0 c0.2616 -0.0028125 0.5228 0.016797 0.7808 0.05918 c0.16961 0.046016 0.33442 0.10961 0.49084 0.19 c0.27558 0.708 -0.0048048 1.3676 0.014805 1.97 c-0.051992 0.20879 -0.24398 0.35199 -0.45916 0.34238 c-1.12 -0.020391 -2.24 -0.05 -3.36 -0.06922 c-0.4112 -0.013984 -0.8228 0.024024 -1.224 0.11363 c-0.516 0.10398 -0.99044 0.3568 -1.3644 0.7272 z M108.40129999999999 31.2912 c-1.0544 -0.6564 -1.8836 -1.6185 -2.3768 -2.7585 c-0.4928 -1.0984 -0.6352 -2.322 -0.4064 -3.504 c0.23359 -1.0304 0.7972 -1.9564 1.6048 -2.6372 c0.9592 -0.8492 2.1712 -1.3604 3.4492 -1.454 c1.3848 -0.15801 2.7832 0.15039 3.9732 0.8768 c0.38359 0.23039 0.7772 0.444 1.1288 0.64436 c0.19719 0.04 0.402 0.004414 0.5736 -0.10039 c0.2248 -0.092384 0.4816 -0.05918 0.6756 0.087228 c0.067616 0.11719 0.11402 0.2452 0.13762 0.3784 c0.018789 1.0068 0.021602 2.014 0.021602 3.0212 c0 0.066016 -0.0616 0.13203 -0.096016 0.20082 c-0.2432 0.17442 -0.5592 0.21121 -0.8364 0.097228 c-0.053984 -0.0584 -0.12359 -0.10441 -0.15039 -0.16801 c-0.13078 -0.30879 -0.25277 -0.622 -0.37277 -0.9352 c-0.4852 -1.1408 -1.272 -2.1276 -2.2764 -2.8548 c-0.98 -0.662 -2.2444 -0.73276 -3.292 -0.18356 c-0.32558 0.18602 -0.6004 0.4496 -0.7992 0.7676 c-0.3116 0.512 -0.4944 1.0924 -0.53204 1.6908 c-0.10199 1.0536 0.21801 2.1048 0.8892 2.9236 c0.20641 0.26602 0.46084 0.49084 0.75004 0.6632 c0.418 0.2468 0.866 0.4396 1.3328 0.5736 c0.8276 0.23039 1.6316 0.5376 2.402 0.9172 c0.604 0.29719 1.1796 0.64756 1.7208 1.0472 c0.9112 0.6708 1.5708 1.6276 1.874 2.7176 c0.063984 0.21879 0.035586 0.4536 -0.0784 0.6508 c-0.0684 0.13281 -0.14641 0.26043 -0.23359 0.38164 c-0.6316 0.88 -1.3288 1.7112 -2.086 2.486 c-0.15922 0.15602 -0.3348 0.2948 -0.52404 0.4128 c-0.074412 0.046408 -0.2016 0.0076172 -0.34199 0.0076172 c-0.03 -0.14602 -0.04922 -0.29442 -0.058008 -0.4432 c0.0035938 -0.33558 0.035586 -0.67 0.03957 -1.0068 c0.0023828 -0.5276 -0.16883 -1.042 -0.4876 -1.4628 c-0.4028 -0.5904 -0.96564 -1.0536 -1.6224 -1.3352 c-0.37879 -0.15441 -0.77276 -0.27442 -1.1632 -0.39801 c-1.0004 -0.30602 -1.9556 -0.7444 -2.8392 -1.304 z M133.163 35.3804 c0.23199 0.048008 0.43024 0.19668 0.54184 0.40548 c0.0060156 0.0984 -0.0011719 0.19762 -0.020781 0.29442 c-0.35359 1.0268 -0.9356 1.9596 -1.7028 2.728 c-0.1532 0.1632 -0.32602 0.3068 -0.51404 0.4284 c-0.8888 0.6232 -1.9148 1.024 -2.9908 1.168 c-0.14719 0.023594 -0.29598 0.033984 -0.4452 0.031172 c-1.4888 -0.11762 -2.8496 -0.53564 -3.92 -1.6552 c-0.678 -0.7028 -1.1288 -1.5936 -1.294 -2.556 c-0.1632 -0.728 -0.25602 -1.47 -0.27762 -2.2156 c0.012812 -0.9316 0.004414 -1.8636 0.008008 -2.796 c0.0028125 -1.1276 0.3384 -2.2292 0.964 -3.1676 c0.6516 -1.0412 1.5284 -1.9228 2.566 -2.58 c0.34801 0.04922 0.4832 0.14524 0.5016 0.35285 c0.016797 0.1852 0.032812 0.37121 0.032812 0.55724 c0.0035938 1.9392 0.0051952 3.8784 0.0051952 5.8172 c0 1.0816 0.0032031 2.1632 -0.0067968 3.2444 c0.0035938 0.4868 0.13758 0.964 0.38836 1.3812 c0.37961 0.706 1.1076 1.1552 1.9092 1.178 c0.3348 0.024805 0.6708 0.024805 1.0056 0 c0.6028 -0.031992 1.1724 -0.2868 1.5984 -0.7152 c0.32281 -0.3116 0.58564 -0.6796 0.776 -1.086 c0.090392 -0.20398 0.1816 -0.40796 0.28602 -0.60436 c0.1284 -0.19238 0.36762 -0.27758 0.58884 -0.21039 z"></path></g></svg>