<svg xmlns="http://www.w3.org/2000/svg" width="1920" height="1080" viewBox="0 0 1920 1080"><path d="M5.63,872.22a200.13,200.13,0,0,0,28.24-5.43c44-11.86,81.39-39,123.07-56.42,48.67-20.34,98.24-22.78,149.52-10.82,128,29.85,245.19,108.25,380.47,99.15,88.17-5.94,167.36-39.26,247.91-72.7,81.35-33.78,163.59-56.43,252.45-45.27,72.12,9,143.18,23.88,215.7,30.93,79.2,7.7,160.18,13.13,239.62,5.75,69.38-6.45,138.35-16.36,207.91-21a643.61,643.61,0,0,1,65.58-1.51" fill="none" stroke="#fff" stroke-miterlimit="10" stroke-width="0.75"></path><path d="M1918.87,233.2c-136.64-38.57-277.62-55.14-419-64.48-62.45-4.12-124.24,2.61-186.59,4.95q-83,3.12-165.85,7.9c-109.55,6.29-219.07,13.62-328.77,16.74-278,7.93-552.89-17.88-818.85-101.93" fill="none" stroke="#fff" stroke-miterlimit="10" stroke-width="0.75"></path><path d="M3.8,99.09C30,107.82,56,114.82,83,122.82c6,1,12,2,18,5,13,4,27,6,41,9,50,14,98,23,149,30,62,10,121,16,183,22,78,7,155,9,233,11q109.5,1.5,219-3c34-1,67-3,101-5,13-1,27-2,40-3,5-1,10-1,15-2,8,0,17-1,25-1,5-1,10-1,15-2,8,0,17-1,25-1,5-1,10-1,15-2,68-6,136-4,204-8l60-3c111-2,219,9,331,27,54,9,105,22,157.38,36" fill="none" stroke="#fff" stroke-miterlimit="10" stroke-width="0.75"></path><path d="M5.15,103.78c14.57,5.43,29.46,9.91,44.17,14.91,14.21,4.83,28.41,9.46,42.89,13.44a683.55,683.55,0,0,0,88.65,18.34c30.44,4.15,60.9,8.07,91.31,12.4,15.16,2.15,30.24,3.81,45.49,4.94,15.74,1.17,31.53,4,47.21,5.91q46.63,5.59,93.39,10.13,46.59,4.54,93.25,8.2c31.36,2.48,62.73,4.93,94.14,6.5,31.81,1.59,63.62,3.14,95.45,4.13s63.58,2,95.37,2.26c32,.23,64-.88,95.93-2.56s63.74-3.64,95.52-6.5,63.8-6,95.7-9q23.84-2.23,47.68-4.35c15.15-1.33,30.32-1.54,45.48-2.53,31.39-2,63-1.73,94.41-1.61,31.68.11,63.36.41,95-.5s63.08-2.08,94.61-.36c31.72,1.74,63.49,2.11,95.23,3.25,31.07,1.11,62.12,2.07,93,5.69s61.5,8.92,91.91,15.29c30.17,6.32,60.11,13.68,90,21.44q21.69,5.64,43.34,11.49" fill="none" stroke="#fff" stroke-miterlimit="10" stroke-width="0.75"></path><path d="M4.93,110.41C13,112.82,21,115.82,29,117.82c10,4,21,8,31,11,24,8,47,16,72,20,11,1,21,3,32,4,110,9,216,18,326,32,5,0,10,1,15,1,116,16,228,21,343,25,41,2,82-1,124-4,90-7,178-22,267-23,29-1,57-1,86,3,107,0,215-3,322,1,21,0,42,1,64,3a589,589,0,0,1,71,13,268.08,268.08,0,0,0,27,7c36,9,70,19,105.71,27.42" fill="none" stroke="#fff" stroke-miterlimit="10" stroke-width="0.75"></path><path d="M5,119.63c26,7.19,50,20.19,78,26.19,1,0,3,2,4,2,26,5,50,11,75,11,139,2,274,15,415,36,74,12,144,15,217,22,44,4,87,2,130,2,13-1,27-1,40-2,33-3,65-7,98-11,13-1,25-3,38-3,3,0,5-2,8-2a122.52,122.52,0,0,0,19-2c80-13,158-9,237-1,94,0,187,1,281-6,53,0,105,7,158,20,1,0,2,2,3,2,38,9,72,20,108.79,28.91" fill="none" stroke="#fff" stroke-miterlimit="10" stroke-width="0.75"></path><path d="M3.9,130.9c8.1,1.92,15.1,4.92,22.1,7.92,18,7,36,13,55,19,11,3,22,4,33,6a418.12,418.12,0,0,0,79,1c72-4,143-4,215,6,63,7,123,21,186,29,19,3,38,5,57,8,70,8,138,20,208,22,102,2,201-11,304-25a77.19,77.19,0,0,1,15-2c3,0,6-2,9-2,43-4,86-2,129,4,5,0,10,1,15,1,3,0,6,1,9,2,11,1,23,2,34,3,96,6,192,0,287-11,80-3,156,21,234,44,5,1,9,2,14,3,1,0,3,1,4.33,1.55" fill="none" stroke="#fff" stroke-miterlimit="10" stroke-width="0.75"></path><path d="M3.59,144.84c34.41,13,68.41,27,105.41,29,51,3,101-6,152-8,22-1,45-3,67-2,13,1,26,0,39,3h10c25,3,48,6,73,11,48,10,92,19,140,26,17,3,33,6,50,8,65,10,127,21,191,26,36,3,71,5,107,3,43-2,86-6,129-10,3,0,7-2,10-2,5,0,10-1,15-1,34-5,67-9,101-15,8-1,16-1,24-2,21-1,41-1,62,1,14,2,27,3,41,5,24,3,46,7,70,10,6,1,13,0,19,0,57,2,114,2,172-2,32-3,62-9,94-14,45-6,86,3,130,13,1,0,3,2,4,2,37,8,70,20,104.6,29.29" fill="none" stroke="#fff" stroke-miterlimit="10" stroke-width="0.75"></path><path d="M2.84,161c27.94,10.34,56,21.77,85.81,25.24,31.09,3.62,62.37-1.44,93-6.2a941.57,941.57,0,0,1,94.75-10.32A678.09,678.09,0,0,1,371.64,171c31.36,2.76,62.32,8.59,93.08,15.16,31,6.62,61.9,14,93,20.25,30.94,6.21,62.2,10.34,93.38,15.15,31.6,4.88,63,10.67,94.58,16,31.06,5.21,62.2,10.2,93.54,13.45a843.46,843.46,0,0,0,95.5,4.14c31.89-.34,63.74-2.21,95.5-5s63.3-6.57,94.84-10.69c31.3-4.09,62.54-9.32,94-12.22s62.81-1.47,94.08,2.72c31.12,4.16,61.74,10.76,93.07,13.45,31.56,2.72,63.23,2.41,94.87,1.46,31.48-1,63.11-1.59,94.44-5,30.85-3.4,60.63-11.88,91.28-16.31,31.21-4.51,61.87-2.05,92.73,3.81,30.66,5.82,60.65,14.58,90.52,23.52,14.57,4.35,29.13,8.76,43.76,12.91" fill="none" stroke="#fff" stroke-miterlimit="10" stroke-width="0.75"></path><path d="M2.89,178.88A295.29,295.29,0,0,0,62,196.82c52,10,99-4,150-12,12-1,23-3,35-4,40-3,80-4,120-1,16,1,31,4,47,6,80,14,153,33,233,45,61,8,117,20,178,30,13,2,26,3,39,5h10c120,11,235-3,355-19,12-1,23-1,35-2,43-1,85,8,128,13,45,5,90,4,135,3,23-1,46-1,69-3,9-1,18-2,28-3,43-8,83-23,127-20a486.75,486.75,0,0,1,65,10c1,0,3,2,4,2,33,7,62,18,93.67,26.35" fill="none" stroke="#fff" stroke-miterlimit="10" stroke-width="0.75"></path><path d="M3.73,197.28C5,197.82,7,198.82,8,198.82c6,2,13,3,19,5,31,9,63,11,95,8,41-5,82-10,123-13,10-1,20,0,30,0,59-3,116,2,175,11,42,6,81,12,123,17,24,4,46,7,70,10,79,12,152,28,231,40,25,3,49,6,74,8,17,1,33,2,50,3,35,0,70,1,105-1,15,0,30-1,45-2,50-4,99-13,149-14,22-1,43-3,65-2,80,4,159-2,239,3a204.2,204.2,0,0,0,55-4c26-4,49-12,75-17,64-10,125,6,182.86,28.25" fill="none" stroke="#fff" stroke-miterlimit="10" stroke-width="0.75"></path><path d="M4.75,216.84c33.25,8,67.25,13,101.25,11,166-13,329-2,495,13,3,0,6,2,9,2,110,12,212,37,323,55,53,8,104,15,156,17,78,3,154-6,233-18,6-1,13-1,19-1,78-10,154-20,232-16,34,1,66,13,101,7,31-6,59-16,90-22,26-5,51-4,77-2a190.93,190.93,0,0,1,33,6,344.73,344.73,0,0,1,39.56,14.3" fill="none" stroke="#fff" stroke-miterlimit="10" stroke-width="0.75"></path><path d="M4.62,236.85c11.38,2,21.38,3,32.38,4,3,0,6,2,9,2,138,7,274,1,412,5,74,2,147,9,222,19h9c85,12,162,32,248,50,38,7,72,14,109,19,14,2,28,4,42,5h10c63,7,125,2,188-7,98-13,191-38,288-36,23,0,45,4,69,9,47,9,87-11,132-20,47-10,95-12,138.5,5.84" fill="none" stroke="#fff" stroke-miterlimit="10" stroke-width="0.75"></path><path d="M3.7,255.33a142.39,142.39,0,0,0,14.3.49c12,2,23,2,35,3,3,0,7,2,10,2,5,0,9,1,14,1,46,5,91,18,138,16,26-2,52-6,78-9,86-11,168-1,253,8,25,3,48,7,73,10,115,17,221,40,336,60,28,4,54,10,81,12,3,0,6,2,9,2,68,7,135,13,204,4h10c103-13,201-33,303-35,31-1,61-2,92,1,19,1,38,0,58-2,28-4,55-10,83-13a389.49,389.49,0,0,1,118.52.09" fill="none" stroke="#fff" stroke-miterlimit="10" stroke-width="0.75"></path><path d="M3.8,273.76A240.67,240.67,0,0,1,57,276.82c51,9,96,30,146,33,30,1,59-10,86-21,43-10,88-7,132-4,38,3,74,9,112,14,23,4,44,8,68,13,40,7,76,14,116,22,78,14,149,23,226,36,36,5,69,10,104,15,35,4,69,7,104,9,36,1,71,1,107-2,105-9,206-23,311-32,93-8,184-9,277-16,19-2,39-1,58-1,3,0,7,1,10.33.93" fill="none" stroke="#fff" stroke-miterlimit="10" stroke-width="0.75"></path><path d="M2.7,298.52c16.3.3,31.3.3,47.3,1.3,30,3,56,13,86,19,27,5,51,3,78-1,32-6,62-14,94-17,38-3,76,0,114,4,53,6,104,17,157,24,34,4,66,7,100,10,47,3,93,4,140,7,5,1,10,1,15,2h10c11,1,22,3,34,4,68,10,130,29,198,45,69,16,136,26,206,18h10c20-2,40-5,60-8,20-2,39-5,59-8,32-4,63-7,95-9,39-1,79,1,118-1a258.32,258.32,0,0,0,37-6c87-19,170-21,254.7-24" fill="none" stroke="#fff" stroke-miterlimit="10" stroke-width="0.75"></path><path d="M4.18,324.56C36,324.82,66,332.82,98,335.82a374.83,374.83,0,0,0,67,0c48-4,94-15,142-18,30-1,59,1,89,4,3,0,7,2,10,2,30,3,58,8,88,13,40,5,77,12,117,14,33,3,65,2,97,1,39-1,77-2,116-2,18,0,35-1,53,1,36,4,71,10,106,20,51,15,99,34,149,52,62,21,126,24,191,16,48-6,94-15,142-19,41-3,82-3,123,2,30,3,59,4,88-4,21-6,40-13,60-19,58-20,120-15,179.59-19.66" fill="none" stroke="#fff" stroke-miterlimit="10" stroke-width="0.75"></path><path d="M5,352.62c55,3.2,108,9.2,164,1.2,63-9,124-20,187-18,17,1,33,1,50,2,15,1,29,2,44,3,135,12,266,27,402,46,70,10,135,24,205,36,29,4,56,8,84,11h10c46,5,92,3,138,0,52-3,101,10,153,17,36,4,71-4,106-6,47-2,93,6,140-1,32-4,63-12,95-17,35-4,68-9,103-12,10,0,20-2,30.12-1.37" fill="none" stroke="#fff" stroke-miterlimit="10" stroke-width="0.75"></path><path d="M6.92,380.73C22,381.82,37,379.82,52,381.82c17,1,33,0,50-1,5-1,9-1,14-2,3-1,7,0,10,0,11-1,22-3,33-4,27-3,53-9,80-10l12-3c33-4,64-5,97-7,13-1,26,0,39,0,33-2,67,0,100,2,18,1,35,2,53,3,29,3,56,7,85,11,38,6,73,13,109,24,3,1,7,1,10,1,50,13,95,27,146,38,24,5,46,8,70,11,15,2,29,3,43,4,13,1,25,1,38,2,32,0,64,1,96-1,14,0,29-1,43-2,42-4,82-9,124-14,45-6,87,13,125,33,12,3,23,11,36,12,72,7,143,7,215,1,71-5,138-18,210-31,9-2,18-1,27.37-2.65" fill="none" stroke="#fff" stroke-miterlimit="10" stroke-width="0.75"></path><path d="M6.79,390.77C20,389.82,32,388.82,45,388.82c56,2,111,10,168,2,50-8,98-16,147-17,101-1,197,12,300,32,1,0,3,2,4,2,18,3,33,8,50,13,39,13,75,28,113,43,18,6,35,12,54,17,57,15,113,22,170,24,84,2,164-10,249-29a132.72,132.72,0,0,1,56-3,281.7,281.7,0,0,1,31,7c18,7,36,14,54,22,16,6,31,12,48,14,41,5,81,12,122,10,14-1,28-3,43-5,40-8,77-14,117-20,50-7,98-14,145.54-23.06" fill="none" stroke="#fff" stroke-miterlimit="10" stroke-width="0.75"></path><path d="M6.71,398.71C49,395.82,87,413.82,129,421.82c23,4,45,2,68-2,42-7,80-19,121-22,82-6,161,8,243,20,7,1,13,3,19,4,36,7,70,13,104,25,46,17,88,40,133,61,2,1,3,0,5,1,92,43,193,57,293,46h10c3,0,6-2,9-2,34-3,66-10,99-19,16-4,31-8,46-13,14-4,27-9,42-11,11-1,22-3,34-2,13,2,26,3,39,7,39,14,75,28,116,37,1,0,3,2,4,2,28,6,53,12,81,15,18,1,35,0,52-5,21-8,41-14,63-20,68-19,135-22,203.2-33.15" fill="none" stroke="#fff" stroke-miterlimit="10" stroke-width="0.75"></path><path d="M6.81,427.05c8.19-1.23,15.19.77,23.19.77,36,4,69,17,105,21,8,0,16,2,24,1,6-1,13,0,19-1,34-4,67-9,101-12a766.17,766.17,0,0,1,83,1c68,6,135,14,203,19,37,3,71,9,108,18,9,2,17,6,26,8,14,4,27,10,40,15,52,23,101,47,157,63,28,8,55,14,84,16,3,0,7,2,10,2,97,9,191-8,285-35,25-7,50-12,76-10,42,4,80,22,121,34,27,7,54,10,82,16a543.41,543.41,0,0,0,56,9c20,2,39-1,59-6,32-8,60-19,93-24,52-9,101-14,150.72-20.06" fill="none" stroke="#fff" stroke-miterlimit="10" stroke-width="0.75"></path><path d="M5.74,453.18C46,453.82,84,466.82,125,471.82c11,1,22,1,33,1,29,1,57-1,86-3a944.82,944.82,0,0,1,106,3q55.5,6,111,9c43,2,86,2,130,5,43,4,84,11,125,25,23,8,45,16,67,26,95,41,197,67,302,55h10c64-8,122-21,187-35,56-11,106,6,158,23,6,2,12,3,19,4,1,0,3,2,4,2,10,2,18,4,28,6,35,5,68,8,103,14,23,4,45,8,68,6,7-1,13-1,20-2,16-4,31-6,47-11,25-7,50-11,76-14,36-4,72-8,107.88-11.21" fill="none" stroke="#fff" stroke-miterlimit="10" stroke-width="0.75"></path><path d="M4.66,478.6A165.45,165.45,0,0,1,53,483.82c32,6,62,13,93,14,72,4,143,4,215,8,58,3,115,0,173,2,50,0,100,4,150,17,42,10,81,24,121,40,63,25,129,41,196,44,78,2,153-15,232-30,27-5,52-8,79-6,22,2,43,5,65,11,43,12,85,23,128,30,47,1,93,11,141,16,32,3,62,1,94-5,59-11,115-14,173.33-19" fill="none" stroke="#fff" stroke-miterlimit="10" stroke-width="0.75"></path><path d="M3,505.3a140.67,140.67,0,0,1,38,3.52c110,23,215,31,323,27,110-3,219-14,329,15a116.27,116.27,0,0,1,18,4,7.58,7.58,0,0,0,4,2c44,11,84,27,126,41,63,20,127,29,193,24,52-3,101-15,153-25l39-6c22-2,43-3,64-2,48,4,92,17,139,29,21,5,40,9,61,12,52,5,101,6,153,15,51,8,98,5,148-2h10c38-4,76-4,114.49-7.58" fill="none" stroke="#fff" stroke-miterlimit="10" stroke-width="0.75"></path><path d="M2.65,535.13C15,536.82,27,534.82,40,536.82c62,10,118,27,179,35,77,11,151-1,227-6,75-6,148-4,224,10,56,11,105,30,159,46,17,4,33,9,51,12,11,1,21,3,32,5a461.8,461.8,0,0,0,83,4c63-3,122-20,185-31,27-4,52-8,79-6,12,1,23,2,35,3,29,4,55,10,84,17,48,13,94,25,142,28,29,2,57,2,86,4,39,4,77,8,116,12a281,281,0,0,0,29,1c55-3,111-3,165.55-5.8" fill="none" stroke="#fff" stroke-miterlimit="10" stroke-width="0.75"></path><path d="M3,570.61a361,361,0,0,1,63,9.21c41,10,78,22,118,33,22,5,42,9,64,11,19,2,39,2,58,2,54-2,106-12,160-17,42-4,83-4,125-2,71,6,137,26,206,45,66,17,131,24,199,17,45-5,86-17,131-27,13-3,24-4,37-7a488,488,0,0,1,52-6c17-1,33,0,50,1,39,4,76,14,115,25a838,838,0,0,0,111,22c42,4,83,3,125,5,45,3,88,10,133,13,21,2,43,2,64,2,34-2,68,0,102.39-1.5" fill="none" stroke="#fff" stroke-miterlimit="10" stroke-width="0.75"></path><path d="M2.82,637.28C28,649.82,55,656.82,82,666.82c6,2,13,3,19,5,57,15,114,19,172,17,22-1,44-3,66-5,56-6,112-14,168-13,41,1,81,7,123,17,1,0,2,2,3,2,9,3,19,3,28,6,62,19,125,33,189,37,31,1,63,0,94-2,24-2,47-6,72-11,67-12,128-30,195-39,11-1,23-2,34-3,40-2,79,1,119,8,63,11,120,26,182,34,15,2,29,3,44,4,23,2,45,2,68,3,86,2,171-3,256.81-1.61" fill="none" stroke="#fff" stroke-miterlimit="10" stroke-width="0.75"></path><path d="M6.42,691.08C77,723.82,157,725.82,235,716.82c3,0,7-2,10-2a77.19,77.19,0,0,0,15-2c24-3,48-6,72-10,31-4,61-6,91-5,19,1,39,1,58,3,17,2,32,4,49,6,6,1,13,3,19,4,12,0,22,4,34,6,111,20,214,48,325,35h10c77-8,147-28,225-44,26-5,50-9,76-12a194.19,194.19,0,0,0,24-2c46-2,90,1,136,13,12,3,24,5,36,8,19,5,36,7,54,12,4,2,9,4,13,4,13,0,26,5,39,7,15,1,29,3,44,4,84,3,169,0,253,2,32,1,64,4,95.55,5.48" fill="none" stroke="#fff" stroke-miterlimit="10" stroke-width="0.75"></path><path d="M11.43,744C79,769.82,150,748.82,217,727.82c35-11,70-20,106-21,47-1,92,3,140,11,140,25,268,69,409,53h10c13-2,26-3,39-5,10-1,19-4,29-6,73-13,138-32,211-45,17-3,34-5,51-7,41-4,80-3,121,4,74,14,141,39,214,41,20,0,41,0,61-1a432.75,432.75,0,0,1,72,0c63,3,125,6,188,10,15,0,29,2,44.31,3.91" fill="none" stroke="#fff" stroke-miterlimit="10" stroke-width="0.75"></path><path d="M12.22,791.91C46,798.82,81,792.82,112,778.82c2-1,3,0,5-1,50-23,95-53,151-61,21-3,41-4,62,0h10c31,6,60,8,89,17,8,2,16,3,24,5,47,12,90,24,138,34l9,3c32,7,63,12,95,16,17,2,33,3,50,4,23,1,46,0,69-1,12-1,23-2,35-3,25-3,48-7,73-11,67-13,126-30,193-44,70-14,134-18,204-5,65,11,125,30,189,35,44,4,86-2,130-6,26-2,51,0,77,2,50,5,99,8,150,14,16,2,31,4,46.5,5.95" fill="none" stroke="#fff" stroke-miterlimit="10" stroke-width="0.75"></path><path d="M11.45,834.56C50,835.82,86,819.82,120,797.82c2-1,3-1,5-2,19-12,37-22,56-32,6-3,11-4,17-7,72-26,145-5,219,11,1,0,3,2,4,2,8,2,16,3,24,5,74,21,145,42,221,49,3,0,7,2,10,2h9c39,5,77,2,115-1,3,0,6-2,9-2,5,0,10-1,15-1,5-1,9-2,14-3,28-2,53-9,81-15,51-10,96-21,148-32,83-17,159-25,242-9,107,21,210,54,315,26,34-4,68-4,103-1,11,1,23,3,34,4,22,1,45,4,67,5,29,3,57,6,84.86,10.33" fill="none" stroke="#fff" stroke-miterlimit="10" stroke-width="0.75"></path><path d="M1913.68,258.42c-10.76-11-21.12-22.43-30.14-34.89" fill="none" stroke="#fff" stroke-miterlimit="10" stroke-width="0.75"></path><path d="M1913.74,279.75c-23.74-18.93-47.74-39.93-66-65" fill="none" stroke="#fff" stroke-miterlimit="10" stroke-width="0.75"></path><path d="M1913.64,294.24C1895,277.82,1874,265.82,1854,249.82c-15-14-28-29-42-43" fill="none" stroke="#fff" stroke-miterlimit="10" stroke-width="0.75"></path><path d="M1913.85,319.63c-8.84-9.26-17.19-19-25.9-28.34-8.39-9-17.16-18.84-27.65-25.46-10.09-6.37-21.23-10.46-30.75-17.81-8.87-6.85-16.59-15-24.39-23.06-8.87-9.13-18-18.23-28.8-25" fill="none" stroke="#fff" stroke-miterlimit="10" stroke-width="0.75"></path><path d="M1915.61,365.1C1886,344.82,1869,313.82,1847,283.82c-7-8-13-15-21-22-7-6-15-10-22-15-15-12-26-26-39-39-7-6-15-12-24.23-13.95" fill="none" stroke="#fff" stroke-miterlimit="10" stroke-width="0.75"></path><path d="M1916.63,457.06c-8.18-7-14.37-15.58-17.21-26-2.76-10.15-3-20.84-4.24-31.23-1.35-11.38-4.83-21-13.29-29s-19.33-13.59-28-21.69c-19.11-17.88-30-43.26-43.54-65.18-7.75-12.54-17.29-22.63-28.6-32a228.17,228.17,0,0,1-23.9-22.3c-7.3-8.07-14.47-16.28-22.4-23.74-7-6.57-15-13.49-24.37-16.24a23.62,23.62,0,0,0-5.85-1" fill="none" stroke="#fff" stroke-miterlimit="10" stroke-width="0.75"></path><path d="M1915.57,492.51A344.68,344.68,0,0,1,1878,454.82c-14-18-13-40-20-61-8-22-32-31-47-48-16-19-25-40-39-61a478.2,478.2,0,0,0-39-48c-13-13-23-27-36-39-8-6-17-12-27.25-13.6" fill="none" stroke="#fff" stroke-miterlimit="10" stroke-width="0.75"></path><path d="M1912.62,542.28C1896,523.82,1882,503.82,1866,484.82c-7-8-12-16-19-25-10-16-14-33-19-50-4-12-8-24-18-32-14-11-31-18-41-34-15-25-26-47-44-71-22-29-40-57-69-80-7-5-13-11-21.7-12.27" fill="none" stroke="#fff" stroke-miterlimit="10" stroke-width="0.75"></path><path d="M1913.56,597C1875,557.82,1845,514.82,1814,466.82c-13-21-18-44-27-66a63,63,0,0,0-20-26c-9-7-18-13-25-21-14-14-24-30-34-48l-9-12c-12-21-26-38-41-57-19-22-37-42-59.1-59.24" fill="none" stroke="#fff" stroke-miterlimit="10" stroke-width="0.75"></path><path d="M1916.41,648.61c-5.41-7.79-12.41-13.79-18.41-20.79-2-2-5-4-7-6-19-22-38-40-56-62-25-33-47-64-63-101-7-18-13-37-22-55-11-21-28-35-45-52-4-4-8-8-11-13-13-22-26-42-42-61-13-15-27-28-40-43-17-20-32-39-46-60.16" fill="none" stroke="#fff" stroke-miterlimit="10" stroke-width="0.75"></path><path d="M1916.41,699.42c-12.41-16.6-25.41-31.6-39.41-48.6-1-1-3-2-4-3-3-4-6-7-9-11-29-29-58-54-83-88-15-22-28-42-38-66l-15-42c-5-14-13-26-22-38-22-28-45-53-55-87a64.37,64.37,0,0,0-15-25,350.3,350.3,0,0,0-30-24c-23-18-36-41-52-66a43.49,43.49,0,0,1-6-7c-4-8-10-13-12.23-22.1" fill="none" stroke="#fff" stroke-miterlimit="10" stroke-width="0.75"></path><path d="M1912.91,751.79c-4.91-6-9.91-12-14.91-18-33-43-60-83-102-117-4-5-9-9-14-13-1-1-2-3-3-4-39-35-67-78-79-129-3-10-6-20-12-29-10-13-18-25-27-39-8-14-15-26-24-39-13-18-14-38-19-59-1-5-4-9-6-13-1-1-4-3-5-5-1-1-2-1-3-2s-1-2-2-3c-21-11-43-20-57-41-15-24-30-46-38.76-71.65" fill="none" stroke="#fff" stroke-miterlimit="10" stroke-width="0.75"></path><path d="M1912,801.44c-5,.38-10,3.38-15,.38-7-6-10-15-15-23-20-32-41-59-63-90-12-15-23-29-37-42-26-23-54-39-77-66-23-28-41-59-45-95-1-11,1-22-6-32-5-8-13-12-19-19a64.2,64.2,0,0,1-10-13c-11-18-18-37-26-56-3-9-8-17-9-26-1-12-1-24-2-36-2-17-16-27-31-32-11-3-21-6-31-13-7-6-12-12-18-19a30.39,30.39,0,0,0-5-7c-7-12-13-23-18-35-4-10-6-20-9.59-30.38" fill="none" stroke="#fff" stroke-miterlimit="10" stroke-width="0.75"></path><path d="M1899.42,794.2l-32.59.17-34.16,3.16c-5.58-2.88-11.29-21.47-14.69-27.5-6-10.69-13.14-20.67-19.35-31.24-21.76-37-39.88-67.06-74.92-93.2-30.71-22.91-66.81-42.79-84.45-78.41-10.7-21.6-21-46.75-24.8-70.61-1.8-11.19.83-25.29-2.68-35.94-4.16-12.66-16-18.72-24.87-27.39-15-14.59-17.6-29.53-21.92-49.47-3.69-17-11.1-31.51-11.71-49.09-.59-17.35,3.71-35.22-8.54-49.31-12-13.87-30.71-12.48-46.3-19.13-29.35-12.51-52.44-68.42-57.22-99.25" fill="none" stroke="#fff" stroke-miterlimit="10" stroke-width="0.75"></path><path d="M1817.62,798.94l-30.16-6-29.17-4c-5.48-3.58-10.14-19.27-13.5-25.52-3.91-7.28-8.07-14.42-12.06-21.65-11.18-20.23-16.35-43.35-29.9-62C1692.12,665,1678,652.87,1664,641.36c-25.22-20.79-53.22-40-67.3-70.57-10.34-22.43-17.11-48.43-21.56-72.65-2.18-11.86-2-24.16-6.17-35.5-4.94-13.45-13.38-20.19-22.88-30.87-12.79-14.38-15.93-29.67-19.49-48-3.23-16.58-10.62-30.3-11-47.62s3.78-37-10.77-49.58c-13.09-11.35-31.9-13.6-47.75-18.89-27.06-9-36.31-37.3-46.64-62-4.44-10.63-12.34-25.23-10.82-37" fill="none" stroke="#fff" stroke-miterlimit="10" stroke-width="0.75"></path><path d="M1727.22,808.05q-26.21-12.94-51.28-27.95-6.62-11.8-13.06-23.7c-3.15-6.15-6.31-12.37-9.29-18.6-10.21-21.32-10.7-45.52-22.62-65.62-8.43-14.22-19.79-26.91-30.75-39.2-19.79-22.21-40.15-44-50.46-72.52-8.12-22.51-12.29-47.19-17-70.58-4.93-24.44-13.93-37.24-28.45-56.89-11.55-15.63-14-29.39-17.23-47.88-3-17-9.74-30.86-10.49-48.63-.8-19,1-36.05-15-49.37-14.27-11.86-33.12-15.3-49.26-23.57-21.8-11.17-32.43-40.1-43.39-61-5.09-9.71-11.78-20.23-13.94-31" fill="none" stroke="#fff" stroke-miterlimit="10" stroke-width="0.75"></path><path d="M1646.74,817c-15.15-7.67-38.67-15-51.13-26.77-5.9-5.57-10.9-19.64-13.64-27.55-2.8-8.07-3.58-16.53-6.18-24.66-2.74-8.57-8-16.32-10.71-24.89-5-16-4.68-30.15-11.44-45.5-6-13.53-13.17-26.57-19.68-39.84-11.69-23.84-22.1-48.29-29.33-73.9-5.43-19.25-7.34-39.23-12.18-58.61-5.81-23.26-18.18-39-31-58.87-9.94-15.42-11.91-28.54-14.58-46.05-2.39-15.65-8.75-30-10.43-45.85-1.81-17.22-.94-35.41-11.86-50-10.61-14.19-27.84-21.66-42.24-31.13-29.66-19.5-46.44-61.13-67.5-89.77" fill="none" stroke="#fff" stroke-miterlimit="10" stroke-width="0.75"></path><path d="M1550.41,820.4c-22.5-18.16-39-30.65-42.66-61-1.65-13.73.18-23.67-6.57-36.62-12-23.14-31.29-41-36.89-67.23A210.56,210.56,0,0,1,1460,622c-1.44-28.64,1.23-56.72-3.31-85.24-3.16-19.87-3.72-41.24-9.62-60.53-5.4-17.67-17.47-24-28.38-37.42s-12.39-24.81-13.17-41.51c-.8-17.35-7.72-32.37-10.58-49.42-3.19-19-5.07-36.67-15.63-53.39-8.7-13.79-21.23-24.06-31.9-36.16-22.76-25.79-37.75-64.84-68.24-83.39" fill="none" stroke="#fff" stroke-miterlimit="10" stroke-width="0.75"></path><path d="M1440.34,815c-1.28-23.68-15.78-44-12.28-68.34,2-13.65,9.1-21.49,3.6-35.48-10-25.37-37.87-37.78-42.09-67.19-2.12-14.71.54-29.36,4.41-43.5,8-29.28,17.07-53,14.63-84.13-1.5-19.09,1.42-41.83-4.74-60.18-5.85-17.43-16-10.43-28.88-17.42-13.65-7.39-12.6-20.73-12.13-34.88.6-17.62-5.44-30.64-9.59-47.45-9-36.6-20.56-67.74-38.91-100.79-14.14-25.46-38.24-72.72-71-79.12" fill="none" stroke="#fff" stroke-miterlimit="10" stroke-width="0.75"></path><path d="M1329.27,803.28c12.62-15.45,14.22-23.36,14.75-43.67.27-10.44-.57-18.56,3.54-28.43,4.28-10.3,18.44-19.55,16.8-31.77-1.17-8.72-17.09-22.16-21.75-29-8.76-12.85-19.24-27.15-20.26-43.17-.91-14.33,3.48-27.58,10.1-40.09,13.78-26,28.47-45.36,28.88-76.1.27-20.3,1.6-41.42.19-61.7-2.32-33.34-13.1-8.94-31.28-9.84-16.58-.81-11.19-22.08-10.62-34.07.8-16.69-5.12-29.87-10-45.73-10.46-33.95-18.16-68.75-29.25-102.5-9.34-28.42-37.41-77.13-72.95-78.92" fill="none" stroke="#fff" stroke-miterlimit="10" stroke-width="0.75"></path><path d="M1229.88,787.89c23.91-12.38,30.52-15.71,34.39-41.51,1.63-10.88,3.78-19.38,10.82-28.25,7.35-9.27,26.6-16.83,24.7-30.26l-4.77-6.09a59.1,59.1,0,0,1-22.3-28.34c-5.6-11.2-11.87-23.45-12.16-36.18-.34-14.71,6.82-26.14,16-37,19.23-22.73,37.27-37.14,37.8-69,.38-23.13,4.76-48.36,1.68-71.32-4.17-31-14.74-1.36-31,1.89-18,3.59-10.29-21.16-9.47-33.19,1.07-15.69-4.52-28.12-9.52-42.74-12.38-36.2-16.27-72.47-25-109.39-7.54-31.78-34.78-70.23-69.6-76.3" fill="none" stroke="#fff" stroke-miterlimit="10" stroke-width="0.75"></path><path d="M1159.4,778.15c20.92-7.63,31.91-9.08,37.16-30.37,2.64-10.66,5.39-19.08,12.71-27.68,6.29-7.37,29.88-18.4,28.71-30.37-.66-6.84-20.14-28.88-21.44-31.61-5.26-11.08-12.1-25.28-11.87-37.73.24-13,6.95-22.92,15.68-32,19.27-20,35.05-30.17,36.76-59.8,1.55-26.73,7.75-53.78,6.92-80.56-1-33.68-9.6-5.18-25.19-3.67-13.69,1.33-8.94-19.55-8.39-28.79,1.07-18.11-4-31.45-9.32-48.55-11.06-35.53-13.94-71.41-22.63-107.28-8.26-34.08-31.86-62.43-63.25-77.5" fill="none" stroke="#fff" stroke-miterlimit="10" stroke-width="0.75"></path><path d="M1098.19,779.31c20.38-7.19,29.81-7.77,38-26,4.43-9.82,6.37-18.15,13.92-26.63,7.36-8.28,28.77-17.58,30-30.22.65-6.79-14.83-29.95-15.63-32.25-3.92-11.38-8.82-25.83-8-37.93.84-11.78,6.47-21.06,14.17-29.63,16.83-18.72,26.86-26.84,29.18-53.05,2.61-29.55,10.94-58.52,12.28-88.2.26-5.87,3.8-17.39-3-20.76-4-1.95-10.87,7.19-14.78,6.74-9.78-1.14-7.54-20.77-7.81-28-.61-15.83-5.56-29.6-9.42-44.86-8.67-34.28-12.5-69.21-20.6-103.49-8.41-35.62-30.52-58.46-57.56-80.61" fill="none" stroke="#fff" stroke-miterlimit="10" stroke-width="0.75"></path><path d="M1042.3,788.86c18.53-7.8,30.18-10,39.07-26.84,4.82-9.14,7.2-17.48,14.44-25.53,7.73-8.6,27.33-17.37,29.81-29.94,1.54-7.82-8.36-28.43-9.15-33.08-2.1-12.25-4-26.53-2.71-38.92,1.21-11.17,5.24-20.47,11.39-29.73,12.62-19,17.31-27.65,19.18-50.82,2.53-31.42,13.52-62,16.72-93.4.67-6.52,4.62-18.82-.43-24.41-2.7-3-7.45.69-9.74-1.8-5.5-6-6-18.92-8.11-26.87-3.6-13.42-7.62-26.41-10-40.12-5.67-32.44-10.49-65.94-18.2-97.94-8.51-35.28-29.85-56.53-52-82.88" fill="none" stroke="#fff" stroke-miterlimit="10" stroke-width="0.75"></path><path d="M990,804.52c17.24-9.44,30.75-14.39,40-31.19,5.59-10.2,9-19.4,17.29-28.24,7.64-8.15,21.55-14.77,25.25-26,2.83-8.6-1.93-23.52-2.24-30.93-.59-14.08,1.72-32.45,3.85-47a133.53,133.53,0,0,1,7.39-28.18c7-18.42,7.93-29.8,8.33-49.25,1-47.48,30.88-92.3,17.92-139.4-3.14-11.4-3.64-16.83-10.14-26.43-7.2-10.63-8.63-19.68-9.66-32.79-2.36-30.19-8.08-60.82-15.19-90.29-8.34-34.6-29-57.11-46.76-86.08" fill="none" stroke="#fff" stroke-miterlimit="10" stroke-width="0.75"></path><path d="M939.6,824c16.43-11.76,31.29-20.23,40.57-38,5.3-10.19,8.5-18.54,15.85-27.49,8-9.77,19.43-16.87,23.89-29.12,2.69-7.41,1.22-15.62,2-23.32,1.87-18.36,9.71-35.46,12.43-53.64,1.82-12.21,3.7-24.51,5.19-36.77,2.26-18.59-3.26-34.94-3-53.1.49-33.13,18.4-69,24-101.7,2.78-16.17,3.24-31.73,3.59-48,.37-17.42.86-16.9-11.41-24.16-11.3-6.69-10.65-12.89-10.42-26.69.47-29.26-4.48-57-12.15-85.28-8.7-32.16-26.69-56.75-40.9-85.87" fill="none" stroke="#fff" stroke-miterlimit="10" stroke-width="0.75"></path><path d="M889.34,845.1c15.78-14.33,31.75-26.83,40.81-46.38,4.45-9.59,8.06-18.39,13.91-27.21,7.28-11,17.17-20.2,21.62-32.85s5.4-24.06,10.68-37.25c6.35-15.82,14.11-30.25,17.1-47.11a165.63,165.63,0,0,0,2.3-36.06c-.94-19.74-11.63-39.09-11.85-58.41-.17-14.85,7.83-32.09,11.87-46.48,4.65-16.6,9.66-33.26,13.28-50.13,4.43-20.61,7.55-41.67,10.47-62.55,1-7.19,6-18.51-.74-23.07-3.72-2.53-10,1.54-13.72,1-14-2-10.69-10.67-9.05-24.34,3.29-27.32-.65-49.42-8.58-75.74-9-30.07-22.77-57.11-35-85.72" fill="none" stroke="#fff" stroke-miterlimit="10" stroke-width="0.75"></path><path d="M837.51,865.49c31.46-35,53.58-76.47,70.06-120.61,16.36-43.79,48.48-80.62,41.85-129.74-3.18-23.54-19-46.56-16.36-70.56,3.39-30.29,19.18-60.44,25.86-90.29,4.89-21.83,9.74-43.78,14.29-65.69,1.25-6,7-20.33.91-24.18-3.32-2.1-12.57,3.38-15.43,3.89-17.14,3.09-12.72-7.72-9.79-21.82,5.51-26.49,3.33-44-5.37-69.44-9.4-27.5-18.51-55-28.21-82.43" fill="none" stroke="#fff" stroke-miterlimit="10" stroke-width="0.75"></path><path d="M782.38,882.92c24.4-32,40.88-60.64,51.78-98.65,3.56-12.43,6.38-25,9.93-37.48,10-35,41.15-59.08,50.69-93.58,4.31-15.6,6.21-32.27,3.7-48.35-4-25.38-21.34-49.49-17-75.75,4.52-27.59,18.32-53.92,25.3-81.06,6-23.36,11.85-46.83,17.74-70.23,7-28,5.26-23-16.11-18.08-17.21,4-11.37-7.59-7.69-20.77,7.5-26.88,7.31-40.45-2.32-66-9.28-24.63-13.1-51.37-20.32-76.7" fill="none" stroke="#fff" stroke-miterlimit="10" stroke-width="0.75"></path><path d="M722.24,895.11C744.77,861.29,765.71,828.2,770,787.2c1.75-16.94.64-33.88,5-50.53,9.59-36.3,44.09-58.65,57.07-92.89,6.61-17.42,11.3-35.85,9.61-54.61-2.26-25.1-16.47-48.84-13.69-74.56,2.94-27.24,19.9-55,27-81.43,5.73-21.31,11.78-42.46,17.73-63.73,6.55-23.42,5.7-23.61-14.09-17.49-21.21,6.56-10.21-11.79-5.43-25.9,8.59-25.36,8.17-34.74-.68-58.15-8.36-22.09-8.06-47.12-12-70.27" fill="none" stroke="#fff" stroke-miterlimit="10" stroke-width="0.75"></path><path d="M655.36,899.81C676.81,864,700,827.53,698.59,784.35c-.66-19.79-6.07-38.78-3.1-58.67,6.21-41.62,45-69.56,64-105.51,9-17,16.55-35.24,17.69-54.62,1.63-27.62-7.91-52.87-.72-80.58C787,444.42,805,404.75,817.21,364.46c5.63-18.6,5.39-19.07-10.81-17.25-8.59,1-8.89,4.63-11.31-4-1.19-4.28,5.48-18.3,6.76-21.84,4.9-13.61,13.61-28.42,10.86-43.37-1.2-6.54-5.18-11.24-7.29-17.32-6.52-18.83-4-42.22-2.56-61.91" fill="none" stroke="#fff" stroke-miterlimit="10" stroke-width="0.75"></path><path d="M578.8,890c22-40.75,40.52-76.17,37.68-123-1.23-20.4-4.87-40.1-3.1-60.62,3.69-42.48,38.35-76.32,57.38-113.31,8.93-17.36,17.61-35,24.09-53.46,9.18-26.13,11.12-53.91,19.29-80.24,10.42-33.62,32.53-63.67,44.89-96.78,6.73-18,3-12.41-9-18.46-6.12-3.09-5.67-.37-8.23-7-2.49-6.45,7.21-23.47,9.38-29.29,4.91-13.12,12.56-26.84,10.48-41.25-.8-5.48-3.9-10-5.1-15.27-3.42-14.86-.58-38.85,8.4-51.78" fill="none" stroke="#fff" stroke-miterlimit="10" stroke-width="0.75"></path><path d="M493.81,863.59c17.63-37.08,30.68-71.09,36.71-111.57,2.62-17.59,4.82-35.21,8.32-52.64,11.95-59.54,42.09-119.81,74.3-171.47a387.9,387.9,0,0,0,40.78-86.48c9.92-29.83,34.22-52.93,47.08-81,6.4-14,1.56-11.58-5.29-21-8.91-12.2-2.66-21.76,3-36.16,8.9-22.7,12.74-36.73,10.47-59.7-1.33-13.52,3.75-37.23,17.62-43.67" fill="none" stroke="#fff" stroke-miterlimit="10" stroke-width="0.75"></path><path d="M406.36,831.21c13-32,20.87-69,38.34-99,7.83-13.41,19.19-24.31,26.71-38,18.69-33.88,14.53-73.72,28.8-108.87a240.45,240.45,0,0,1,36.85-62.12c25.45-31.17,45.57-55,58.93-93.63,9.67-27.93,31.48-49.09,47.78-72.18,6.7-9.48,2.35-14.18-.51-23.77-4.27-14.34.39-23.86,6-37.88,8.48-21.21,12.11-37.44,13.64-59.4,1-13.92,8.72-35.42,25.47-36.55" fill="none" stroke="#fff" stroke-miterlimit="10" stroke-width="0.75"></path><path d="M322.45,803.59c10.34-29.7,16.69-72.05,46.41-89.52,17.5-10.29,36.32-11.16,49.2-29,20.31-28.14-.21-65.7,10.86-98a173.19,173.19,0,0,1,38.36-63.56c15.54-16.59,33.89-30.51,48-48.5,16.24-20.78,18.12-42.72,28.17-65.8,6.13-14.07,18.86-24,27.42-36.39q4.68-8.44,10-16.46a27.67,27.67,0,0,1,7.33-2.87c7.66-10.05,3.78-18,3.9-29.53.12-12.3,3.11-20,7.87-31.64,8.89-21.81,12.72-41.65,18.17-63.95,3.65-14.9,13.87-31.22,31.59-28.94" fill="none" stroke="#fff" stroke-miterlimit="10" stroke-width="0.75"></path><path d="M248.08,791.49c9.37-29.74,16.62-71,50.72-81.71,21.24-6.69,44.36-.2,62.25-16.88q22.24-20.56,6.29-49.72a89,89,0,0,1,1.55-58.54c6.51-21.27,17.89-39.86,32.88-56.09,16.91-18.3,37.8-32.49,54.19-51.32,20-22.92,21.23-44.65,30.81-71.67,6.5-18.32,22.85-28.86,34-44A19.26,19.26,0,0,1,529.45,349a8.16,8.16,0,0,0,5.53-1.36c5.94-8.77,6.81-15.93,8.6-26.74,2.45-14.87,6.2-26.37,12.18-40.4,8-18.68,11.25-37.81,18.15-56.62,6.29-17.15,17.26-29.33,36.87-25.39" fill="none" stroke="#fff" stroke-miterlimit="10" stroke-width="0.75"></path><path d="M187.12,799.62c11.38-30.82,19.42-65.51,53-78.72,21.36-8.4,45.41-6.47,64.27-21.44q22.74-16,14.26-44.77a102.63,102.63,0,0,1,3.86-59.77c8.52-28.69,23.48-53.33,42.36-76.28,15.62-19,33.3-36.4,46.2-57.52,11.06-18.1,14.91-36.87,21.11-56.86,6.1-19.7,19.84-27.07,32.29-42.17q5.48-8,11-16a60.42,60.42,0,0,1,8.64-5.18c7.91-9.7,9.47-20,13-31.66,4-13.48,9.68-25.75,15.26-38.67C519.7,253.4,522,235,529.19,217.91c7.87-18.62,22.24-29.14,42.37-21" fill="none" stroke="#fff" stroke-miterlimit="10" stroke-width="0.75"></path><path d="M135.63,820.19c12.8-29.94,23.07-59.68,51.4-78.4,19.61-13,42.83-19.15,60.82-34.82,29.27-25.49,24.86-65.93,34.38-100.49,7.88-28.6,20.16-55.14,35.72-80.31,12.42-20.09,26.74-39,38.2-59.68,12.61-22.77,15.08-46.85,24.83-70s36.8-43,53.38-61.78c15-17,22.95-44.8,32-65.45,9-20.32,10.32-43,19.19-63,8.79-19.82,29-24.17,46.47-11.49" fill="none" stroke="#fff" stroke-miterlimit="10" stroke-width="0.75"></path><path d="M88.2,844.85C101.68,817,114.63,789.17,136,766.39c19.41-20.67,42.76-37.18,60.77-59.24,41.28-50.58,51.86-120.06,80.1-178,10.76-22.06,22.83-43.51,32.63-66,9.1-20.91,12-43.68,20.31-64.46,6.1-15.3,20-24.91,30.75-36.63,9.1-9.91,16.82-21.55,25.22-32.12,14.24-17.9,25.06-40,35-60.53,11.17-23,11.67-47,19.61-70.8,8.21-24.57,35.4-23.52,51.83-6.58" fill="none" stroke="#fff" stroke-miterlimit="10" stroke-width="0.75"></path><path d="M39.43,865.26c29.29-55.7,65.75-104.31,100.33-156.5,24-36.19,50.48-72.54,67.37-112.6,9.74-23.11,19-46.4,28.84-69.47,16.58-38.92,28.75-78.61,43.59-118,11-29.13,40.1-55.83,58.79-81.15,14.45-19.57,29.16-40.09,39.92-62,11.85-24.1,10.36-49.05,18-74.13,8.59-28.24,39.41-21.19,55.87-2.87" fill="none" stroke="#fff" stroke-miterlimit="10" stroke-width="0.75"></path><path d="M11.27,823.05C39,774.82,64,728.82,94,679.82c26-40,50-75,74-115,21-37,34-74,48-113l6-12c1-2,0-3,1-5,5-11,10-22,16-33s13-20,20-31c22-30,43-55,65-86,19-27,23-56,26-87,2-12,7-26,20-29,16-3,31,5,41.68,15.54" fill="none" stroke="#fff" stroke-miterlimit="10" stroke-width="0.75"></path><path d="M10.28,728.1C21,711.82,29,695.82,41,678.82c3-4,4-9,7-13,16-22,29-42,44-64,11-17,20-33,30-51,18-33,26-68,39-102,3-8,7-15,11-23,4-6,7-13,12-18,4-4,7-9,11-13,20-19,34-40,51-63,11-14,24-24,36-37,18-22,19-50,24-78,2-16,3-36,18-46,15-9,35-4,46.9,8.56" fill="none" stroke="#fff" stroke-miterlimit="10" stroke-width="0.75"></path><path d="M3.64,664.32C46,601.82,93,538.82,108,462.82c6-14,9-28,17-41,2-4,5-6,8-10,12-14,28-24,41-38,5-6,10-12,15-19,3-5,6-9,9-14,14-19,35-25,55-36,6-4,8-10,9-16,1-12,0-24-2-37-1-9,1-18,2-27,3-17,6-33,16-48,2-1,3-3,5-5,14-11,35-11,46.77,1.76" fill="none" stroke="#fff" stroke-miterlimit="10" stroke-width="0.75"></path><path d="M2.87,605.79c23.13-35,44.13-71,56.13-113,9-32,9-68,35-90,11-10,24-14,34-24s17-22,26-33c16-18,39-24,61-30,4-2,10-2,13-7,2-3,1-7,1-11-2-11-3-21-6-32-3-10-5-20-4-31,3-18,7-34,17-50,7-9,14-17,24-21,9-4,20-4,28.3,3.1" fill="none" stroke="#fff" stroke-miterlimit="10" stroke-width="0.75"></path><path d="M2.83,538.84A270,270,0,0,0,21.2,484.6c3.77-17.52,6.24-35.35,11.45-52.53,4.5-14.83,11.16-34.22,27.26-39.56,7.32-2.42,15-3.35,21.54-7.7s11.64-11,16.13-17.43,8.56-13.48,13.49-19.75a67.09,67.09,0,0,1,19-16.35c13.29-7.78,28.79-11.55,41.66-20,10.19-6.71,10.94-17.25,10-28.57-1.57-19.41-8.14-38-1.89-57.26,5-15.38,12.65-31.32,22.84-44C211.11,171,223.28,159,237.43,158a21,21,0,0,1,9,1.34" fill="none" stroke="#fff" stroke-miterlimit="10" stroke-width="0.75"></path><path d="M6.5,398.67a18.69,18.69,0,0,1,5.5-4.85c13-5,29-5,37-18,19-32,41-57,62-88,18-28,26-57,43-86a226.3,226.3,0,0,1,13-20c11-13,22-24,37.23-31" fill="none" stroke="#fff" stroke-miterlimit="10" stroke-width="0.75"></path><path d="M6.53,374.36C13,362.82,20,352.82,27,340.82c27-42,56-78,74-124,12-31,34-55,60.6-75.49" fill="none" stroke="#fff" stroke-miterlimit="10" stroke-width="0.75"></path><path d="M2.89,313.73C13,296.82,25,280.82,35,263.82c8-13,15-26,20-40,12-36,36-68,63.58-93.06" fill="none" stroke="#fff" stroke-miterlimit="10" stroke-width="0.75"></path><path d="M4.52,236.79c16.78-32,30.62-65.18,52-94.53,5.84-8,12-15.76,18.62-23.17" fill="none" stroke="#fff" stroke-miterlimit="10" stroke-width="0.75"></path><path d="M3.8,154.16c8.63-16.26,17.69-32.31,27.53-47.88" fill="none" stroke="#fff" stroke-miterlimit="10" stroke-width="0.75"></path></svg>