<svg xmlns="http://www.w3.org/2000/svg" width="1920" height="1080" viewBox="0 0 1920 1080"><path d="M6.63,872.1a200.42,200.42,0,0,0,27.24-5.31c44-11.86,81.39-39,123.07-56.42,48.67-20.34,98.24-22.78,149.52-10.82,128,29.85,245.19,108.25,380.47,99.15,88.17-5.94,167.36-39.26,247.91-72.7,81.35-33.78,163.59-56.43,252.45-45.27,72.12,9,143.18,23.88,215.7,30.93,79.2,7.7,160.18,13.13,239.62,5.75,69.38-6.45,138.35-16.36,207.91-21,23.19-1.55,46.12-2.35,68.87-1.38" fill="none" stroke="#ebebeb" stroke-miterlimit="10" stroke-width="0.75"></path><path d="M1920.07,234.06l-.63-.7c-136.82-38.68-278-55.29-419.57-64.64-62.45-4.12-124.24,2.61-186.59,4.95q-83,3.12-165.85,7.9c-109.55,6.29-219.07,13.62-328.77,16.74C540.45,206.24,265.39,180.39-.75,96.2" fill="none" stroke="#ebebeb" stroke-miterlimit="10" stroke-width="0.75"></path><path d="M7,100.1C131,140,258,165,390,181c98,11,193,17,290,19,111,1,221,1,333-8,55-4,110-8,165-11,79-5,158-8,237-11,64-2,127,4,191,8a75.69,75.69,0,0,0,15,1c99,6,196,27,292.19,53.38" fill="none" stroke="#ebebeb" stroke-miterlimit="10" stroke-width="0.75"></path><path d="M7.1,104.43C9,104,11,106,13,107c13,4,25,7,37,12,28,9,55,17,85,23,55,10,105,16,159,24,69,9,135,16,204,22,92,7,183,13,275,16,135,3,268-9,404-22,20-2,39-2,59-3,66-1,132,1,198-3,93,3,187,4,280,13,67,11,133,28,199.12,45.42" fill="none" stroke="#ebebeb" stroke-miterlimit="10" stroke-width="0.75"></path><path d="M8.77,111.72C25,116,39,123,55,128c24,7,47,16,72,19,100,12,196,19,296,30,50,6,99,13,149,17,130,11,258,24,388,14,77-6,151-14,228-23,7-1,13,0,20,0,48-2,95,0,143,2,29,1,57-1,86-1,37-1,74,0,111,0,41,1,82-2,123,1,62,5,120,18,181,34,21,6,41,12,61.3,17.26" fill="none" stroke="#ebebeb" stroke-miterlimit="10" stroke-width="0.75"></path><path d="M8.79,121C51,136,92,153,137,157c71,5,141,3,212,9,32,3,62,6,94,10,28,4,54,9,82,12,158,21,311,42,470,25h10c60-7,118-14,178-20,25-3,49-4,74-2,26,2,52,3,78,5,16,1,33,1,49,2,87,1,175,1,262-6,73-1,144,16,215,37l15,3c12,5,25,8,38.3,11.36" fill="none" stroke="#ebebeb" stroke-miterlimit="10" stroke-width="0.75"></path><path d="M8.29,132.45C50,149,93,165,139,165c80,2,160-6,241,2,37,4,72,8,110,16a141.59,141.59,0,0,1,20,4c68,13,132,19,198,27,102,18,205,21,310,9,51-6,101-13,152-19,33-5,65-8,98-5,23,3,44,5,67,8,18,2,35,2,53,4,21,2,43,1,64,2,69,2,138-8,207-13,44-3,86,3,130,14,4,1,7,3,11,4,40,8,77,21,114.73,30.82" fill="none" stroke="#ebebeb" stroke-miterlimit="10" stroke-width="0.75"></path><path d="M9.79,147.09c28,10.24,56,21.53,85.69,26,30.91,4.62,62.27,1.51,93.16-1.61,31.34-3.17,62.74-5.58,94.23-6.37a828.57,828.57,0,0,1,94.8,2.7c31.27,2.79,62.23,8.14,93,14.18s61.62,12.79,92.56,18.48,62.2,9.45,93.34,14,62.47,9.83,93.75,14.43c31.09,4.58,62.29,8.58,93.64,10.74a912.08,912.08,0,0,0,94.7,1.31c31.49-1.1,62.92-3.55,94.26-6.78s62.64-7.26,93.88-11.52c31-4.23,62-9.53,93.23-11.62s62.72.54,93.78,4.9,61.79,9.65,93.22,11.37,63.22,1.15,94.82.36c31.34-.78,62.72-1.34,93.92-4.74,31-3.38,61.51-10.78,92.73-12.73,31-1.94,61.85,2.39,92.14,8.81S1841,234.16,1870.78,243c14.52,4.29,29,8.58,43.63,12.62" fill="none" stroke="#ebebeb" stroke-miterlimit="10" stroke-width="0.75"></path><path d="M10.21,163.74C37,173,63,185,92,187c33,1,65-3,99-8a725.27,725.27,0,0,1,154-10l39,3c20,2,39,5,60,9,49,10,93,22,142,30,83,14,161,29,244,38,3,0,6,2,9,2,88,8,174,4,263-9a77.19,77.19,0,0,0,15-2c26-3,51-7,77-11l33-3a468.54,468.54,0,0,1,53,0,488,488,0,0,1,52,6c19,4,37,7,56,10,55,6,108,6,163,1,5-1,10-1,15-2,17-1,34-2,52-4,39-6,77-18,116-16,24,2,48,5,72,11,1,0,3,2,4,2,37,8,69,20,104.39,29.8" fill="none" stroke="#ebebeb" stroke-miterlimit="10" stroke-width="0.75"></path><path d="M9.71,181.27C35,192,63,197,90,200c35,2,69-6,104-12,15-2,29-4,44-6,57-6,111-7,168,3,58,10,110,23,168,33,38,7,72,13,110,18,53,9,101,19,154,27,15,2,29,3,43,4a825,825,0,0,0,86,4c95-2,190-14,284-26,49-2,97,7,146,13h10c59,6,118,3,177,1,27-2,53-5,79-13a270.23,270.23,0,0,1,113-9c49,7,93,23,138.85,36.95" fill="none" stroke="#ebebeb" stroke-miterlimit="10" stroke-width="0.75"></path><path d="M8.22,198.55C16,201,23,202,31,205c19,5,38,7,57,8,15,1,29-1,44-2,8-1,17-2,25-3,3,0,6-2,9-2,8-1,17-2,25-3a1011.52,1011.52,0,0,1,174-3c80,6,157,21,237,32,5,0,10,1,15,1,40,6,78,12,118,19,15,3,29,6,44,9,44,7,85,15,128,20,15,2,30,2,45,4,18,2,37,2,55,3,86,3,171-6,258-16,18-2,36-2,54-3h60c66,3,132-2,199,2a541.88,541.88,0,0,0,57,0c29-2,55-12,84-18,55-11,107-3,159,13,13,4,25,9,36.79,13.4" fill="none" stroke="#ebebeb" stroke-miterlimit="10" stroke-width="0.75"></path><path d="M8.73,217.71C42,226,76,230,111,227c28-2,56-4,84-5,102-2,204,2,307,9,92,7,179,19,272,36,115,22,222,47,335,48,33,0,66-2,99-4,35-3,69-9,104-12,70-8,138-17,208-21,43-3,84,6,127,11,11,1,22-2,33-4,29-5,55-15,84-20,22-4,43-4,65-3,30,2,59,10,85.81,21.25" fill="none" stroke="#ebebeb" stroke-miterlimit="10" stroke-width="0.75"></path><path d="M7.33,237.27C49,246,92,244,135,245c114,3,227,1,341,3,34,1,68,4,102,6,25,2,49,5,74,8,20,3,38,5,58,8,29,4,56,10,85,15,61,12,115,26,176,38,43,8,82,15,124,17,3,0,6,2,9,2,71,6,139-1,210-12,99-16,194-37,292-30,36,8,73,15,109,3,57-19,116-32,177-17,5,1,9,1,14,3,3,1,6,3,8.73,3.36" fill="none" stroke="#ebebeb" stroke-miterlimit="10" stroke-width="0.75"></path><path d="M7.12,255.58C35,256,63,260,91,264c31,4,61,10,92,13a308.54,308.54,0,0,0,43,0c36-3,71-10,107-11,25-1,49-2,74,0,20,0,39,2,59,3,40,3,79,8,119,13,5,1,9,3,14,3,7,0,13,2,20,3,124,17,238,41,362,63,73,12,143,20,216,18,88-4,173-21,261-32,30-3,59-6,89-8,10-1,20,0,30,0,49-2,98,6,148-2,64-11,127-22,189.52-10.47" fill="none" stroke="#ebebeb" stroke-miterlimit="10" stroke-width="0.75"></path><path d="M7.24,273.79C29,274,50,275,72,280c3,0,7,0,10,1a7.58,7.58,0,0,0,4,2c5,1,9,2,14,3,49,15,100,34,150,16,26-8,51-18,78-19,47-2,92,2,139,8,5,0,10,1,15,1,75,9,144,24,219,37,29,6,55,11,83,15,23,4,45,7,68,11,67,10,129,21,196,30,5,0,10,1,15,1,3,0,6,1,9,2a917.61,917.61,0,0,0,196,3c109-11,214-25,323-34,90-7,178-10,267-15,18-1,37,0,55.36,1.52" fill="none" stroke="#ebebeb" stroke-miterlimit="10" stroke-width="0.75"></path><path d="M6.83,298.52C22,296,38,299,53,300c28,2,52,13,80,19,24,5,46,5,70,1,30-6,56-14,86-18,45-6,88-3,133,3,56,8,109,16,165,24a77.19,77.19,0,0,0,15,2c16,2,31,4,47,5,5,1,10,1,15,2,97,8,191,3,288,27,26,7,50,12,76,20,11,3,22,5,33,7,1,0,3,2,4,2,31,6,58,13,89,18,15,2,29,4,43,5a624.44,624.44,0,0,0,129-7c101-15,199-23,299-21a122.52,122.52,0,0,0,19-2c34-6,66-15,100-18,57-6,113-11,169.32-10.38" fill="none" stroke="#ebebeb" stroke-miterlimit="10" stroke-width="0.75"></path><path d="M6.85,324.68c31.38,1.57,62.27,7.76,93.54,10.5,31.55,2.75,63.11.57,94.48-3.27s62.53-9.15,94-12c31.77-2.87,63.44-2.14,95.16,1.05s63.11,8.09,94.53,13.09c31.22,5,62.43,10,93.87,13.38a922.18,922.18,0,0,0,94.86,5c32,.15,64.06-.83,96.08-1.65,31.75-.81,63.68-1.95,95.43-.5a512.18,512.18,0,0,1,92.28,13c30.28,7,60,16.28,89.34,26.47,29.67,10.31,58.94,21.76,88.83,31.4,29.1,9.38,58.89,17.07,89.35,20.28,31.18,3.29,62.68,1.46,93.77-1.83,31.64-3.36,63.09-8.22,94.61-12.51s63-7.84,94.7-9,63.15,1.9,94.86,4.2c15.82,1.15,31.74,1.74,47.57.41a213.25,213.25,0,0,0,44-9c28.58-8.68,56.08-20,85.78-24.55,30.46-4.66,61.37-4.61,92-6.86,15.29-1.12,30.55-2.59,45.85-3.6" fill="none" stroke="#ebebeb" stroke-miterlimit="10" stroke-width="0.75"></path><path d="M7.05,352.72C30,354,53,357,76,358c74,4,146-14,220-21,7-1,13,0,20-1a778.94,778.94,0,0,1,108,2c73,6,143,13,216,22,8,2,17,3,25,4,79,9,153,16,233,30,68,12,131,24,199,35,64,9,126,9,189,5,46-3,90,5,137,14,10,1,19,2,28,3a303,303,0,0,0,52-1,589.56,589.56,0,0,1,59-6c36-2,71,5,107,3,29-2,56-10,86-15,54-10,104-15,156.81-18.9" fill="none" stroke="#ebebeb" stroke-miterlimit="10" stroke-width="0.75"></path><path d="M6.92,380.73C42,381,77,382,112,380c26-2,51-8,77-10l33-3c105-15,206-15,310-8,53,4,103,13,157,24,1,0,3,2,4,2,10,2,19,4,29,6,11,3,21,6,33,8,1,0,3,2,4,2l15,3c96,30,194,47,293,48,36,0,72-1,108-4,15-2,30-2,45-4,3,0,6-2,9-2a77.19,77.19,0,0,0,15-2c48-7,97-14,142,6,32,14,63,33,99,35,59,3,118,4,178,0,8,0,15,0,23-2h9c8-1,16-1,24-2,50-8,97-15,147-24,16-2,30-5,45.78-6.41" fill="none" stroke="#ebebeb" stroke-miterlimit="10" stroke-width="0.75"></path><path d="M6.79,390.77C23,389,39,389,55,389c53,2,104,10,158,1,5,0,9-1,14-1,19-3,37-7,56-9,5,0,9-1,14-1,3,0,7-2,10-2,106-9,208,4,314,21,41,7,79,18,117,31,46,17,89,36,137,50,39,11,76,17,116,22h10c75,8,147,3,223-11,57-10,113-30,169-8,34,13,66,30,102,34,39,5,76,12,115,10a436.08,436.08,0,0,0,49-6c70-14,134-20,204-32,17-3,34-6,50.19-9.6" fill="none" stroke="#ebebeb" stroke-miterlimit="10" stroke-width="0.75"></path><path d="M7.27,398.68C22,398,36,400,51,403h8c15,3,28,8,43,11a7.58,7.58,0,0,1,4,2c25,8,50,8,76,7,16-5,34-4,50-11,130-32,259-7,392,18a48.75,48.75,0,0,0,7,3c67,12,121,46,181,71,9,4,17,8,26,12,2,1,3,0,5,1,46,20,93,32,143,38h9c98,10,195-5,289-36,16-5,32-9,48-11a140.54,140.54,0,0,1,29,0c8,2,15,2,23,4l30,9c19,7,37,15,56,22,9,3,18,4,28,6,1,0,3,2,4,2,41,8,78,20,119,17,43-5,79-25,122-33,21-3,40-6,60-9,37-4,73-9,110.43-14.38" fill="none" stroke="#ebebeb" stroke-miterlimit="10" stroke-width="0.75"></path><path d="M5.68,427.07C48,426,87,443,129,448c16,2,31,2,47,1,40-4,80-11,120-13,48-1,94,4,142,9,3,0,6,2,9,2,73,7,143,8,216,25,1,0,3,2,4,2,5,1,9,2,14,3,50,15,95,38,143,59,2,1,3,0,5,1,77,33,159,47,242,44,10-1,20-1,30-2,16-1,32-4,48-6,26-5,50-8,76-15,32-9,61-17,93-23,26-4,50,0,75,7,39,12,75,27,116,34a437.44,437.44,0,0,1,50,9c3,1,7,1,10,1,28,6,54,9,82,5,22-4,43-11,64-18l15-3,9-3c60-12,116-17,173.83-24.27" fill="none" stroke="#ebebeb" stroke-miterlimit="10" stroke-width="0.75"></path><path d="M5.74,453.18C15,452,24,453,33,454c37,5,71,17,107,19,35,2,71-2,106-3,71-1,141,6,212,11l141,6c86,5,163,43,242,74,85,32,174,42,265,30a77.19,77.19,0,0,0,15-2c45-6,86-13,130-25,31-8,62-12,94-8,29,4,56,12,84,22,5,1,9,2,14,3,1,0,3,2,4,2,18,5,36,8,55,11,45,7,88,14,133,19,42,4,80-11,122-20,54-10,104-13,156.14-19" fill="none" stroke="#ebebeb" stroke-miterlimit="10" stroke-width="0.75"></path><path d="M5.79,478.59C25,478,42,481,61,484c23,5,45,8,68,13,98,4,195,7,293,9,43,2,87,0,130,1,93,2,182,28,268,63a369.81,369.81,0,0,0,59,19c15,4,28,8,43,11,16,3,32,6,48,7,10,1,20,1,30,2,76,2,148-15,225-29,18-3,35-7,53-8h25c9,1,19,2,28,3,10,1,18,4,28,6a460.68,460.68,0,0,1,64,16c20,6,40,11,61,14,41,5,81,7,122,13,29,5,56,9,85,7,26-2,50-7,76-11,49-7,97-10,145.86-14.14" fill="none" stroke="#ebebeb" stroke-miterlimit="10" stroke-width="0.75"></path><path d="M5.32,505.29A156.2,156.2,0,0,1,44,509c51,8,99,19,150,22,5,1,10,1,15,2,24,2,47,3,70,4,62,1,124-3,186-5,42-1,83-1,125,2,58,4,113,17,168,35,3,1,6,3,9,4,8,2,15,5,23,7,49,18,98,33,151,40,84,11,162-7,246-23,51-10,98-12,150-2,56,11,105,28,161,36,27,3,54,3,81,5,23,2,45,5,68,9,34,4,66,6,100,3,56-6,111-10,166-11.85" fill="none" stroke="#ebebeb" stroke-miterlimit="10" stroke-width="0.75"></path><path d="M5.93,535.19C70,537,130,557,195,569c10,1,19,3,28,4,18,2,35,2,53,3,69,1,138-9,207-12a838.76,838.76,0,0,1,112,1c35,3,68,8,102,17,50,14,96,30,146,43,67,19,133,25,203,13,73-13,141-34,214-32,41,2,80,10,121,21,9,2,19,3,28,6a7.58,7.58,0,0,0,4,2c34,7,66,16,100,18,58,3,115,6,174,14,16,2,31,3,47,4,60,2,119-5,179.29-5.25" fill="none" stroke="#ebebeb" stroke-miterlimit="10" stroke-width="0.75"></path><path d="M5.56,570.78C43,572,79,584,115,592c43,15,86,27,131,32,31,3,60,3,91-1h10c11-1,22-3,33-4,3,0,6-2,9-2l33-3c54-9,107-8,160-8,73,6,141,26,213,45,60,15,118,25,178,19,66-5,126-23,193-36,10-1,19-3,28-4,16-1,33-3,49-2,10,1,20,1,30,2,23,3,44,8,66,13,59,16,115,31,175,35,40,3,80,1,120,5,48,5,96,12,144,13,45,0,90-1,135.21-.28" fill="none" stroke="#ebebeb" stroke-miterlimit="10" stroke-width="0.75"></path><path d="M7,638.86C10,641,13,641,16,642s5,3,8,4c2,1,3,0,5,1,3,1,5,3,8,4s6,1,9,3c2,1,3,0,5,1,54,22,112,31,170,33,77,4,152-10,228-16,41-3,81-1,123,5,55,9,104,24,158,38,89,22,174,25,265,9,87-16,167-41,253-46,20-1,40,0,60,1,23,2,45,5,68,9,57,11,109,23,166,31,23,3,46,4,69,6,23,1,47,1,70,1,77,2,155-1,232.11-.53" fill="none" stroke="#ebebeb" stroke-miterlimit="10" stroke-width="0.75"></path><path d="M10,692.64C80,722,157,726,232,716c5,0,10-1,15-1,52-7,102-15,153-16,102-3,197,21,300,40,22,5,42,8,64,11,15,2,29,2,44,4,8,1,16,0,24,0,48,2,94-2,143-10,111-20,213-55,323-50,15,1,29,3,44,5,40,8,76,15,115,26,26,7,51,10,78,14,20,3,39,3,59,4,101,1,202-2,304,5,5,1,10,0,15.31,1.55" fill="none" stroke="#ebebeb" stroke-miterlimit="10" stroke-width="0.75"></path><path d="M11.43,744C40,753,70,758,101,756c49-4,93-23,140-36,17-4,34-8,51-10,37-5,72-5,109-1,3,0,6,2,9,2,5,0,10,1,15,1,41,6,80,13,121,22,43,11,82,18,126,27,23,5,45,7,68,10,18,2,36,2,54,3a689.22,689.22,0,0,0,128-9c35-5,67-13,102-20,1,0,3-2,4-2,42-8,78-18,120-26,43-9,83-13,125-11,19,1,38,3,58,6,22,4,42,8,63,13,47,12,92,24,139,28,47,3,93-4,140-1,70,3,138,5,208,10,11,1,21,2,31.78,4" fill="none" stroke="#ebebeb" stroke-miterlimit="10" stroke-width="0.75"></path><path d="M11.63,791.8c29.31,5.64,59.35,1.75,87.47-7.62s54-24.06,80.43-37.14c26.95-13.32,54.63-24.38,84.5-29,31-4.78,62.29-3.19,93.19,1.47,31.37,4.73,62.43,11.36,93.27,18.73,31.16,7.45,62.13,15.66,93.19,23.49s62,15.25,93.36,21.16a728.83,728.83,0,0,0,94.47,12,712.58,712.58,0,0,0,96.15-1.37,891.41,891.41,0,0,0,94.45-12.84c31.2-5.87,62-13.42,92.88-20.89,31.07-7.53,62.17-14.94,93.59-20.92A865.18,865.18,0,0,1,1203,725.73a456.31,456.31,0,0,1,94.55,2.23C1329,732,1360,739.11,1390.9,746.19s62,14.25,93.44,18.61,63.1,5.39,94.76,1.76c15.9-1.82,31.77-4.08,47.76-5.08s32.18-.85,48.23-.26c32.17,1.17,64.23,4.47,96.25,7.59s64.3,5.29,96.4,8.45c15.28,1.51,30.52,3.39,45.64,6.08" fill="none" stroke="#ebebeb" stroke-miterlimit="10" stroke-width="0.75"></path><path d="M9.68,834.54C18,833,25,834,33,833c11-2,22-4,32-8,33-11,61-31,92-49,24-13,47-23,74-28,58-9,110,3,167,15a48.75,48.75,0,0,1,11,4c8,3,18,2,26,5,17,6,35,9,52,15,32,9,63,15,95,24,3,1,7,1,10,1,66,15,128,20,194,13h9c20-3,38-5,58-8,16-3,31-7,47-10,54-9,101-22,155-33,81-17,156-26,237-13,112,18,220,58,330,28a535.08,535.08,0,0,1,120,1c8,1,17,1,25,2h9c5,1,9,1,14,2,41,3,82,7,123.17,13" fill="none" stroke="#ebebeb" stroke-miterlimit="10" stroke-width="0.75"></path><path d="M1914.58,259.34c-11.09-11.25-21.77-23-31-35.81" fill="none" stroke="#ebebeb" stroke-miterlimit="10" stroke-width="0.75"></path><path d="M1914.75,280.54c-9.56-7.53-19.18-14.8-28.1-23.12a359,359,0,0,1-26-27q-6.7-7.69-13-15.75" fill="none" stroke="#ebebeb" stroke-miterlimit="10" stroke-width="0.75"></path><path d="M1914.49,295A287.15,287.15,0,0,0,1872,262.87c-14.94-9.24-27.33-22-39.34-34.64-6.82-7.18-13.53-14.46-20.62-21.38" fill="none" stroke="#ebebeb" stroke-miterlimit="10" stroke-width="0.75"></path><path d="M1914.71,320.52c-8.87-9.22-17.22-18.91-25.9-28.3-8.44-9.13-17.26-19.07-27.74-25.9-10.09-6.57-21.45-10.6-31.08-18-9-6.86-16.78-15.11-24.63-23.19-8.94-9.2-18.08-18.39-29-25.25" fill="none" stroke="#ebebeb" stroke-miterlimit="10" stroke-width="0.75"></path><path d="M1913.43,363.23c-6.29-5.28-12.85-10.16-18.66-16a199.35,199.35,0,0,1-16.24-19c-10.59-13.78-20.21-28.19-30.47-42.2a148.41,148.41,0,0,0-16.8-19.8c-6.25-6-13.68-10.37-20.9-15-12.46-8-22.09-18.49-32.12-29.28-10.46-11.25-22.14-23.79-37.47-28" fill="none" stroke="#ebebeb" stroke-miterlimit="10" stroke-width="0.75"></path><path d="M1911.94,452.69c-15.74-16.12-14.16-37.18-17.41-57.9-1.71-10.9-7.23-19.61-15.62-26.64-9.07-7.61-19.51-13.28-27.84-21.82-18.1-18.57-28.48-43.38-42.31-64.95-13.56-21.15-35-34.18-51.63-52.58-7.25-8-14.42-16.2-22.36-23.58-6.84-6.37-14.69-13-23.85-15.65a23.73,23.73,0,0,0-5.68-.92" fill="none" stroke="#ebebeb" stroke-miterlimit="10" stroke-width="0.75"></path><path d="M1913.26,490.3C1896,474,1876,458,1868,435c-3-12-6-23-8-35-2-5-3-10-6-15-10-14-24-21-37-32a130.2,130.2,0,0,1-15-18c-14-21-23-42-38-62-21-27-42-49-65-73-8-8-17-15-29.25-15.79" fill="none" stroke="#ebebeb" stroke-miterlimit="10" stroke-width="0.75"></path><path d="M1913.05,542.79c-11-13.14-21.51-26.63-32.1-40.08-10.31-13.1-21.36-25.63-31-39.25-9.09-12.89-14.16-26.8-18.65-41.8-4.22-14.07-8.41-29.34-18.54-40.44-9.38-10.29-22.27-16.23-32.64-25.33-11.09-9.73-17.88-23.06-25-35.73a498.29,498.29,0,0,0-54.68-79.33c-17.18-20.24-34-43.82-57.91-56.6a60.53,60.53,0,0,0-8.27-3.68" fill="none" stroke="#ebebeb" stroke-miterlimit="10" stroke-width="0.75"></path><path d="M1913.12,596.48C1883,567,1860,535,1835,499c-6-10-12-19-19-29-6-10-10-20-15-30-6-16-10-32-18-47-9-15-22-23-36-33-9-7-14-14-20-23-38-60-75-115-128.1-159.43" fill="none" stroke="#ebebeb" stroke-miterlimit="10" stroke-width="0.75"></path><path d="M1913.32,645.15c-26.49-29.55-55.12-57-79.79-88.18a570,570,0,0,1-33.91-47.88c-10.79-16.95-21-34.19-28.4-52.91-7.35-18.48-13.31-37.61-22.89-55.12-8.12-14.83-20.09-26.65-32-38.42-6.08-6-12.14-12-17.63-18.57-5.67-6.76-10.09-14.09-14.61-21.63a325.85,325.85,0,0,0-32.93-44.91c-12.77-14.83-26.5-28.8-39.34-43.57-13.19-15.19-25.87-30.85-37.53-47.25q-4.24-6-8.27-12.05" fill="none" stroke="#ebebeb" stroke-miterlimit="10" stroke-width="0.75"></path><path d="M1913.27,695.42C1886,660,1856,629,1824,598c-15-14-27-28-40-45-15-21-29-42-39-65-9-23-15-47-28-69-22-35-53-61-66-100-4-12-9-23-19-32-17-14-34-24-48-42-9-12-16-24-26-37-5-7-9-15-15-22-3-4-6-9-7.23-14.29" fill="none" stroke="#ebebeb" stroke-miterlimit="10" stroke-width="0.75"></path><path d="M1913.35,752.29C1900,738,1890,724,1879,708c-7-10-14-17-20-27-11-16-24-29-37-42-22-21-45-38-66-61-24-28-42-58-53-93-4-15-7-29-15-43-6-9-13-17-19-26-12-20-23-39-36-59-10-16-10-34-15-52-7-23-31-29-50-42-19-12-29-30-39-50-9-15-18-28-22.76-43.84" fill="none" stroke="#ebebeb" stroke-miterlimit="10" stroke-width="0.75"></path><path d="M1913.33,801.24C1903,806,1893,802,1889,792c-4-11-11-21-18-31-4-5-8-9-12-14-28-39-49-77-85-107-25-19-48-36-69-59-13-16-24-32-32-51-1-2,0-3-1-5-6-10-8-19-11-30-3-15,2-32-9-44a228.42,228.42,0,0,1-22-22c-3-5-7-9-9-14-4-11-10-21-14-32-4-13-12-25-15-39s-3-26-4-40c-2-15-13-26-27-31-14-4-29-8-40-18-24-25-37-56-45.59-87.57" fill="none" stroke="#ebebeb" stroke-miterlimit="10" stroke-width="0.75"></path><path d="M1899.42,794.2l-32.59.17-34.16,3.16c-5.58-2.88-11.29-21.47-14.69-27.5-6-10.69-13.14-20.67-19.35-31.24-21.76-37-39.88-67.06-74.92-93.2-30.71-22.91-66.81-42.79-84.45-78.41-10.7-21.6-21-46.75-24.8-70.61-1.8-11.19.83-25.29-2.68-35.94-4.16-12.66-16-18.72-24.87-27.39-15-14.59-17.6-29.53-21.92-49.47-3.69-17-11.1-31.51-11.71-49.09-.59-17.35,3.71-35.22-8.54-49.31-12-13.87-30.71-12.48-46.3-19.13-29.35-12.51-52.44-68.42-57.22-99.25" fill="none" stroke="#ebebeb" stroke-miterlimit="10" stroke-width="0.75"></path><path d="M1817.62,798.94l-30.16-6-29.17-4c-5.48-3.58-10.14-19.27-13.5-25.52-3.91-7.28-8.07-14.42-12.06-21.65-11.18-20.23-16.35-43.35-29.9-62C1692.12,665,1678,652.87,1664,641.36c-25.22-20.79-53.22-40-67.3-70.57-10.34-22.43-17.11-48.43-21.56-72.65-2.18-11.86-2-24.16-6.17-35.5-4.94-13.45-13.38-20.19-22.88-30.87-12.79-14.38-15.93-29.67-19.49-48-3.23-16.58-10.62-30.3-11-47.62s3.78-37-10.77-49.58c-13.09-11.35-31.9-13.6-47.75-18.89-27.06-9-36.31-37.3-46.64-62-4.44-10.63-12.34-25.23-10.82-37" fill="none" stroke="#ebebeb" stroke-miterlimit="10" stroke-width="0.75"></path><path d="M1727.22,808.05q-26.21-12.94-51.28-27.95-6.62-11.8-13.06-23.7c-3.15-6.15-6.31-12.37-9.29-18.6-10.21-21.32-10.7-45.52-22.62-65.62-8.43-14.22-19.79-26.91-30.75-39.2-19.79-22.21-40.15-44-50.46-72.52-8.12-22.51-12.29-47.19-17-70.58-4.93-24.44-13.93-37.24-28.45-56.89-11.55-15.63-14-29.39-17.23-47.88-3-17-9.74-30.86-10.49-48.63-.8-19,1-36.05-15-49.37-14.27-11.86-33.12-15.3-49.26-23.57-21.8-11.17-32.43-40.1-43.39-61-5.09-9.71-11.78-20.23-13.94-31" fill="none" stroke="#ebebeb" stroke-miterlimit="10" stroke-width="0.75"></path><path d="M1646.74,817c-15.15-7.67-38.67-15-51.13-26.77-5.9-5.57-10.9-19.64-13.64-27.55-2.8-8.07-3.58-16.53-6.18-24.66-2.74-8.57-8-16.32-10.71-24.89-5-16-4.68-30.15-11.44-45.5-6-13.53-13.17-26.57-19.68-39.84-11.69-23.84-22.1-48.29-29.33-73.9-5.43-19.25-7.34-39.23-12.18-58.61-5.81-23.26-18.18-39-31-58.87-9.94-15.42-11.91-28.54-14.58-46.05-2.39-15.65-8.75-30-10.43-45.85-1.81-17.22-.94-35.41-11.86-50-10.61-14.19-27.84-21.66-42.24-31.13-29.66-19.5-46.44-61.13-67.5-89.77" fill="none" stroke="#ebebeb" stroke-miterlimit="10" stroke-width="0.75"></path><path d="M1550.41,820.4c-22.5-18.16-39-30.65-42.66-61-1.65-13.73.18-23.67-6.57-36.62-12-23.14-31.29-41-36.89-67.23A210.56,210.56,0,0,1,1460,622c-1.44-28.64,1.23-56.72-3.31-85.24-3.16-19.87-3.72-41.24-9.62-60.53-5.4-17.67-17.47-24-28.38-37.42s-12.39-24.81-13.17-41.51c-.8-17.35-7.72-32.37-10.58-49.42-3.19-19-5.07-36.67-15.63-53.39-8.7-13.79-21.23-24.06-31.9-36.16-22.76-25.79-37.75-64.84-68.24-83.39" fill="none" stroke="#ebebeb" stroke-miterlimit="10" stroke-width="0.75"></path><path d="M1440.34,815c-1.28-23.68-15.78-44-12.28-68.34,2-13.65,9.1-21.49,3.6-35.48-10-25.37-37.87-37.78-42.09-67.19-2.12-14.71.54-29.36,4.41-43.5,8-29.28,17.07-53,14.63-84.13-1.5-19.09,1.42-41.83-4.74-60.18-5.85-17.43-16-10.43-28.88-17.42-13.65-7.39-12.6-20.73-12.13-34.88.6-17.62-5.44-30.64-9.59-47.45-9-36.6-20.56-67.74-38.91-100.79-14.14-25.46-38.24-72.72-71-79.12" fill="none" stroke="#ebebeb" stroke-miterlimit="10" stroke-width="0.75"></path><path d="M1329.27,803.28c12.62-15.45,14.22-23.36,14.75-43.67.27-10.44-.57-18.56,3.54-28.43,4.28-10.3,18.44-19.55,16.8-31.77-1.17-8.72-17.09-22.16-21.75-29-8.76-12.85-19.24-27.15-20.26-43.17-.91-14.33,3.48-27.58,10.1-40.09,13.78-26,28.47-45.36,28.88-76.1.27-20.3,1.6-41.42.19-61.7-2.32-33.34-13.1-8.94-31.28-9.84-16.58-.81-11.19-22.08-10.62-34.07.8-16.69-5.12-29.87-10-45.73-10.46-33.95-18.16-68.75-29.25-102.5-9.34-28.42-37.41-77.13-72.95-78.92" fill="none" stroke="#ebebeb" stroke-miterlimit="10" stroke-width="0.75"></path><path d="M1229.88,787.89c23.91-12.38,30.52-15.71,34.39-41.51,1.63-10.88,3.78-19.38,10.82-28.25,7.35-9.27,26.6-16.83,24.7-30.26l-4.77-6.09a59.1,59.1,0,0,1-22.3-28.34c-5.6-11.2-11.87-23.45-12.16-36.18-.34-14.71,6.82-26.14,16-37,19.23-22.73,37.27-37.14,37.8-69,.38-23.13,4.76-48.36,1.68-71.32-4.17-31-14.74-1.36-31,1.89-18,3.59-10.29-21.16-9.47-33.19,1.07-15.69-4.52-28.12-9.52-42.74-12.38-36.2-16.27-72.47-25-109.39-7.54-31.78-34.78-70.23-69.6-76.3" fill="none" stroke="#ebebeb" stroke-miterlimit="10" stroke-width="0.75"></path><path d="M1159.4,778.15c20.92-7.63,31.91-9.08,37.16-30.37,2.64-10.66,5.39-19.08,12.71-27.68,6.29-7.37,29.88-18.4,28.71-30.37-.66-6.84-20.14-28.88-21.44-31.61-5.26-11.08-12.1-25.28-11.87-37.73.24-13,6.95-22.92,15.68-32,19.27-20,35.05-30.17,36.76-59.8,1.55-26.73,7.75-53.78,6.92-80.56-1-33.68-9.6-5.18-25.19-3.67-13.69,1.33-8.94-19.55-8.39-28.79,1.07-18.11-4-31.45-9.32-48.55-11.06-35.53-13.94-71.41-22.63-107.28-8.26-34.08-31.86-62.43-63.25-77.5" fill="none" stroke="#ebebeb" stroke-miterlimit="10" stroke-width="0.75"></path><path d="M1098.19,779.31c20.38-7.19,29.81-7.77,38-26,4.43-9.82,6.37-18.15,13.92-26.63,7.36-8.28,28.77-17.58,30-30.22.65-6.79-14.83-29.95-15.63-32.25-3.92-11.38-8.82-25.83-8-37.93.84-11.78,6.47-21.06,14.17-29.63,16.83-18.72,26.86-26.84,29.18-53.05,2.61-29.55,10.94-58.52,12.28-88.2.26-5.87,3.8-17.39-3-20.76-4-1.95-10.87,7.19-14.78,6.74-9.78-1.14-7.54-20.77-7.81-28-.61-15.83-5.56-29.6-9.42-44.86-8.67-34.28-12.5-69.21-20.6-103.49-8.41-35.62-30.52-58.46-57.56-80.61" fill="none" stroke="#ebebeb" stroke-miterlimit="10" stroke-width="0.75"></path><path d="M1042.3,788.86c18.53-7.8,30.18-10,39.07-26.84,4.82-9.14,7.2-17.48,14.44-25.53,7.73-8.6,27.33-17.37,29.81-29.94,1.54-7.82-8.36-28.43-9.15-33.08-2.1-12.25-4-26.53-2.71-38.92,1.21-11.17,5.24-20.47,11.39-29.73,12.62-19,17.31-27.65,19.18-50.82,2.53-31.42,13.52-62,16.72-93.4.67-6.52,4.62-18.82-.43-24.41-2.7-3-7.45.69-9.74-1.8-5.5-6-6-18.92-8.11-26.87-3.6-13.42-7.62-26.41-10-40.12-5.67-32.44-10.49-65.94-18.2-97.94-8.51-35.28-29.85-56.53-52-82.88" fill="none" stroke="#ebebeb" stroke-miterlimit="10" stroke-width="0.75"></path><path d="M990,804.52c17.24-9.44,30.75-14.39,40-31.19,5.59-10.2,9-19.4,17.29-28.24,7.64-8.15,21.55-14.77,25.25-26,2.83-8.6-1.93-23.52-2.24-30.93-.59-14.08,1.72-32.45,3.85-47a133.53,133.53,0,0,1,7.39-28.18c7-18.42,7.93-29.8,8.33-49.25,1-47.48,30.88-92.3,17.92-139.4-3.14-11.4-3.64-16.83-10.14-26.43-7.2-10.63-8.63-19.68-9.66-32.79-2.36-30.19-8.08-60.82-15.19-90.29-8.34-34.6-29-57.11-46.76-86.08" fill="none" stroke="#ebebeb" stroke-miterlimit="10" stroke-width="0.75"></path><path d="M939.6,824c16.43-11.76,31.29-20.23,40.57-38,5.3-10.19,8.5-18.54,15.85-27.49,8-9.77,19.43-16.87,23.89-29.12,2.69-7.41,1.22-15.62,2-23.32,1.87-18.36,9.71-35.46,12.43-53.64,1.82-12.21,3.7-24.51,5.19-36.77,2.26-18.59-3.26-34.94-3-53.1.49-33.13,18.4-69,24-101.7,2.78-16.17,3.24-31.73,3.59-48,.37-17.42.86-16.9-11.41-24.16-11.3-6.69-10.65-12.89-10.42-26.69.47-29.26-4.48-57-12.15-85.28-8.7-32.16-26.69-56.75-40.9-85.87" fill="none" stroke="#ebebeb" stroke-miterlimit="10" stroke-width="0.75"></path><path d="M889.34,845.1c15.78-14.33,31.75-26.83,40.81-46.38,4.45-9.59,8.06-18.39,13.91-27.21,7.28-11,17.17-20.2,21.62-32.85s5.4-24.06,10.68-37.25c6.35-15.82,14.11-30.25,17.1-47.11a165.63,165.63,0,0,0,2.3-36.06c-.94-19.74-11.63-39.09-11.85-58.41-.17-14.85,7.83-32.09,11.87-46.48,4.65-16.6,9.66-33.26,13.28-50.13,4.43-20.61,7.55-41.67,10.47-62.55,1-7.19,6-18.51-.74-23.07-3.72-2.53-10,1.54-13.72,1-14-2-10.69-10.67-9.05-24.34,3.29-27.32-.65-49.42-8.58-75.74-9-30.07-22.77-57.11-35-85.72" fill="none" stroke="#ebebeb" stroke-miterlimit="10" stroke-width="0.75"></path><path d="M837.51,865.49c31.46-35,53.58-76.47,70.06-120.61,16.36-43.79,48.48-80.62,41.85-129.74-3.18-23.54-19-46.56-16.36-70.56,3.39-30.29,19.18-60.44,25.86-90.29,4.89-21.83,9.74-43.78,14.29-65.69,1.25-6,7-20.33.91-24.18-3.32-2.1-12.57,3.38-15.43,3.89-17.14,3.09-12.72-7.72-9.79-21.82,5.51-26.49,3.33-44-5.37-69.44-9.4-27.5-18.51-55-28.21-82.43" fill="none" stroke="#ebebeb" stroke-miterlimit="10" stroke-width="0.75"></path><path d="M782.38,882.92c24.4-32,40.88-60.64,51.78-98.65,3.56-12.43,6.38-25,9.93-37.48,10-35,41.15-59.08,50.69-93.58,4.31-15.6,6.21-32.27,3.7-48.35-4-25.38-21.34-49.49-17-75.75,4.52-27.59,18.32-53.92,25.3-81.06,6-23.36,11.85-46.83,17.74-70.23,7-28,5.26-23-16.11-18.08-17.21,4-11.37-7.59-7.69-20.77,7.5-26.88,7.31-40.45-2.32-66-9.28-24.63-13.1-51.37-20.32-76.7" fill="none" stroke="#ebebeb" stroke-miterlimit="10" stroke-width="0.75"></path><path d="M722.24,895.11C744.77,861.29,765.71,828.2,770,787.2c1.75-16.94.64-33.88,5-50.53,9.59-36.3,44.09-58.65,57.07-92.89,6.61-17.42,11.3-35.85,9.61-54.61-2.26-25.1-16.47-48.84-13.69-74.56,2.94-27.24,19.9-55,27-81.43,5.73-21.31,11.78-42.46,17.73-63.73,6.55-23.42,5.7-23.61-14.09-17.49-21.21,6.56-10.21-11.79-5.43-25.9,8.59-25.36,8.17-34.74-.68-58.15-8.36-22.09-8.06-47.12-12-70.27" fill="none" stroke="#ebebeb" stroke-miterlimit="10" stroke-width="0.75"></path><path d="M655.36,899.81C676.81,864,700,827.53,698.59,784.35c-.66-19.79-6.07-38.78-3.1-58.67,6.21-41.62,45-69.56,64-105.51,9-17,16.55-35.24,17.69-54.62,1.63-27.62-7.91-52.87-.72-80.58C787,444.42,805,404.75,817.21,364.46c5.63-18.6,5.39-19.07-10.81-17.25-8.59,1-8.89,4.63-11.31-4-1.19-4.28,5.48-18.3,6.76-21.84,4.9-13.61,13.61-28.42,10.86-43.37-1.2-6.54-5.18-11.24-7.29-17.32-6.52-18.83-4-42.22-2.56-61.91" fill="none" stroke="#ebebeb" stroke-miterlimit="10" stroke-width="0.75"></path><path d="M578.8,890c22-40.75,40.52-76.17,37.68-123-1.23-20.4-4.87-40.1-3.1-60.62,3.69-42.48,38.35-76.32,57.38-113.31,8.93-17.36,17.61-35,24.09-53.46,9.18-26.13,11.12-53.91,19.29-80.24,10.42-33.62,32.53-63.67,44.89-96.78,6.73-18,3-12.41-9-18.46-6.12-3.09-5.67-.37-8.23-7-2.49-6.45,7.21-23.47,9.38-29.29,4.91-13.12,12.56-26.84,10.48-41.25-.8-5.48-3.9-10-5.1-15.27-3.42-14.86-.58-38.85,8.4-51.78" fill="none" stroke="#ebebeb" stroke-miterlimit="10" stroke-width="0.75"></path><path d="M493.81,863.59c17.63-37.08,30.68-71.09,36.71-111.57,2.62-17.59,4.82-35.21,8.32-52.64,11.95-59.54,42.09-119.81,74.3-171.47a387.9,387.9,0,0,0,40.78-86.48c9.92-29.83,34.22-52.93,47.08-81,6.4-14,1.56-11.58-5.29-21-8.91-12.2-2.66-21.76,3-36.16,8.9-22.7,12.74-36.73,10.47-59.7-1.33-13.52,3.75-37.23,17.62-43.67" fill="none" stroke="#ebebeb" stroke-miterlimit="10" stroke-width="0.75"></path><path d="M406.36,831.21c13-32,20.87-69,38.34-99,7.83-13.41,19.19-24.31,26.71-38,18.69-33.88,14.53-73.72,28.8-108.87a240.45,240.45,0,0,1,36.85-62.12c25.45-31.17,45.57-55,58.93-93.63,9.67-27.93,31.48-49.09,47.78-72.18,6.7-9.48,2.35-14.18-.51-23.77-4.27-14.34.39-23.86,6-37.88,8.48-21.21,12.11-37.44,13.64-59.4,1-13.92,8.72-35.42,25.47-36.55" fill="none" stroke="#ebebeb" stroke-miterlimit="10" stroke-width="0.75"></path><path d="M322.45,803.59c10.34-29.7,16.69-72.05,46.41-89.52,17.5-10.29,36.32-11.16,49.2-29,20.31-28.14-.21-65.7,10.86-98a173.19,173.19,0,0,1,38.36-63.56c15.54-16.59,33.89-30.51,48-48.5,16.24-20.78,18.12-42.72,28.17-65.8,6.13-14.07,18.86-24,27.42-36.39q4.68-8.44,10-16.46a27.67,27.67,0,0,1,7.33-2.87c7.66-10.05,3.78-18,3.9-29.53.12-12.3,3.11-20,7.87-31.64,8.89-21.81,12.72-41.65,18.17-63.95,3.65-14.9,13.87-31.22,31.59-28.94" fill="none" stroke="#ebebeb" stroke-miterlimit="10" stroke-width="0.75"></path><path d="M248.08,791.49c9.37-29.74,16.62-71,50.72-81.71,21.24-6.69,44.36-.2,62.25-16.88q22.24-20.56,6.29-49.72a89,89,0,0,1,1.55-58.54c6.51-21.27,17.89-39.86,32.88-56.09,16.91-18.3,37.8-32.49,54.19-51.32,20-22.92,21.23-44.65,30.81-71.67,6.5-18.32,22.85-28.86,34-44A19.26,19.26,0,0,1,529.45,349a8.16,8.16,0,0,0,5.53-1.36c5.94-8.77,6.81-15.93,8.6-26.74,2.45-14.87,6.2-26.37,12.18-40.4,8-18.68,11.25-37.81,18.15-56.62,6.29-17.15,17.26-29.33,36.87-25.39" fill="none" stroke="#ebebeb" stroke-miterlimit="10" stroke-width="0.75"></path><path d="M187.12,799.62c11.38-30.82,19.42-65.51,53-78.72,21.36-8.4,45.41-6.47,64.27-21.44q22.74-16,14.26-44.77a102.63,102.63,0,0,1,3.86-59.77c8.52-28.69,23.48-53.33,42.36-76.28,15.62-19,33.3-36.4,46.2-57.52,11.06-18.1,14.91-36.87,21.11-56.86,6.1-19.7,19.84-27.07,32.29-42.17q5.48-8,11-16a60.42,60.42,0,0,1,8.64-5.18c7.91-9.7,9.47-20,13-31.66,4-13.48,9.68-25.75,15.26-38.67C519.7,253.4,522,235,529.19,217.91c7.87-18.62,22.24-29.14,42.37-21" fill="none" stroke="#ebebeb" stroke-miterlimit="10" stroke-width="0.75"></path><path d="M135.63,820.19c12.8-29.94,23.07-59.68,51.4-78.4,19.61-13,42.83-19.15,60.82-34.82,29.27-25.49,24.86-65.93,34.38-100.49,7.88-28.6,20.16-55.14,35.72-80.31,12.42-20.09,26.74-39,38.2-59.68,12.61-22.77,15.08-46.85,24.83-70s36.8-43,53.38-61.78c15-17,22.95-44.8,32-65.45,9-20.32,10.32-43,19.19-63,8.79-19.82,29-24.17,46.47-11.49" fill="none" stroke="#ebebeb" stroke-miterlimit="10" stroke-width="0.75"></path><path d="M88.2,844.85C101.68,817,114.63,789.17,136,766.39c19.41-20.67,42.76-37.18,60.77-59.24,41.28-50.58,51.86-120.06,80.1-178,10.76-22.06,22.83-43.51,32.63-66,9.1-20.91,12-43.68,20.31-64.46,6.1-15.3,20-24.91,30.75-36.63,9.1-9.91,16.82-21.55,25.22-32.12,14.24-17.9,25.06-40,35-60.53,11.17-23,11.67-47,19.61-70.8,8.21-24.57,35.4-23.52,51.83-6.58" fill="none" stroke="#ebebeb" stroke-miterlimit="10" stroke-width="0.75"></path><path d="M39.43,865.26c29.29-55.7,65.75-104.31,100.33-156.5,24-36.19,50.48-72.54,67.37-112.6,9.74-23.11,19-46.4,28.84-69.47,16.58-38.92,28.75-78.61,43.59-118,11-29.13,40.1-55.83,58.79-81.15,14.45-19.57,29.16-40.09,39.92-62,11.85-24.1,10.36-49.05,18-74.13,8.59-28.24,39.41-21.19,55.87-2.87" fill="none" stroke="#ebebeb" stroke-miterlimit="10" stroke-width="0.75"></path><path d="M11.27,823.05q21.65-38.85,44.06-77.27c14.35-24.68,28.56-49.46,43.92-73.53,14.38-22.51,29.44-44.58,43.82-67.09s28.24-45.72,39.9-69.92c12.32-25.58,21.7-52.39,31.86-78.86,9.92-25.82,20.76-50.69,36.39-73.62,15.14-22.23,32-43.37,48.15-64.88S334,274.14,341.55,247.8c3.64-12.78,5-26.05,7.05-39.14,1.66-10.7,2.89-23.58,10-32.28,11.07-13.48,30.33-7.37,42.86.4a76.94,76.94,0,0,1,10.19,7.58" fill="none" stroke="#ebebeb" stroke-miterlimit="10" stroke-width="0.75"></path><path d="M11.37,726.34C42,675,74,628,108,576c2-3,2-6,4-9,26-40,35-84,54-127,5-11,10-23,19-32,1-1,1-3,2-4,8-8,16-16,24-25,14-16,25-34,38-51,8-9,17-15,25-24,4-4,7-8,11-13,8-12,13-23,15-37,1-14,5-28,6-42,1-10,4-19,7-28a27.58,27.58,0,0,1,15-15c15-7,31,0,42.9,10.37" fill="none" stroke="#ebebeb" stroke-miterlimit="10" stroke-width="0.75"></path><path d="M7,659.24C50,598,92,536,110,459a98.16,98.16,0,0,1,19-43c13-16,30-27,45-42,9-10,15-21,23-32,14-19,34-27,54-36,7-3,10-11,11-18,1-19-4-37-1-56,3-17,6-33,13-49,8-15,27-23,43-17a22.55,22.55,0,0,1,12.77,7.57" fill="none" stroke="#ebebeb" stroke-miterlimit="10" stroke-width="0.75"></path><path d="M5.62,601.62c12.11-18.42,23.54-37.34,33.24-57.15A287.49,287.49,0,0,0,60.62,485c4.65-19.39,8-39.34,16.05-57.71,3.87-8.85,8.75-17.71,16-24.18,7.06-6.26,15.71-10.22,23.65-15.17,17.59-11,25.86-29.14,39.44-44,12.17-13.31,30.51-20.51,47.49-25.52,6.71-2,13.74-3.27,20.13-6.2,6.56-3,6.08-9,5.26-15.48-2.47-19.58-10.32-39.11-9.44-59,.5-11.31,4.55-22.66,8.34-33.24,3-8.3,5.95-16.42,11.42-23.43,8.77-11.22,24.06-23.29,39.29-19.57a23.8,23.8,0,0,1,10,5.34" fill="none" stroke="#ebebeb" stroke-miterlimit="10" stroke-width="0.75"></path><path d="M5.39,533C20,503,22,470,31,437c5-16,9-32,23-42,16-4,31-9,41-24,9-14,16-27,30-37,16-10,32-13,48-23a23.71,23.71,0,0,0,9-15c1-17-3-33-5-50-1-20,8-37,18-54,11-17,28-38,51.45-32.66" fill="none" stroke="#ebebeb" stroke-miterlimit="10" stroke-width="0.75"></path><path d="M6.84,398.23C12,393,18,390,25,390c11-1,20-8,27-18,7-11,12-21,19-31,22-30,46-55,59-89,6-17,14-33,23-50,9-14,18-27,31-38,6-5,13-9,20.23-13.17" fill="none" stroke="#ebebeb" stroke-miterlimit="10" stroke-width="0.75"></path><path d="M6.84,373.94c9.66-12.72,16.6-27.33,25.49-40.58C43.56,316.64,55,300.06,66,283.21c5.51-8.42,11.18-16.82,16.13-25.58A215.7,215.7,0,0,0,94,231.86c6.87-17,14.07-33.36,25.32-48,12.2-15.91,27.07-29.56,42.31-42.5" fill="none" stroke="#ebebeb" stroke-miterlimit="10" stroke-width="0.75"></path><path d="M7,307.24C23,282,42,257,52,229a244.57,244.57,0,0,1,66.58-98.25" fill="none" stroke="#ebebeb" stroke-miterlimit="10" stroke-width="0.75"></path><path d="M8.47,229.2C21,208,28,185,42,163c11-16,21-30,33.17-43.92" fill="none" stroke="#ebebeb" stroke-miterlimit="10" stroke-width="0.75"></path><path d="M9.88,142.88c6.8-12.4,13.89-24.64,21.45-36.6" fill="none" stroke="#ebebeb" stroke-miterlimit="10" stroke-width="0.75"></path></svg>